<svg width="59" height="27" viewBox="0 0 59 27" fill="none" xmlns="http://www.w3.org/2000/svg">
<path d="M12.8711 26H7.43945V11.1289C7.43945 10.7188 7.44531 10.2148 7.45703 9.61719C7.46875 9.00781 7.48633 8.38672 7.50977 7.75391C7.5332 7.10938 7.55664 6.5293 7.58008 6.01367C7.45117 6.16602 7.1875 6.42969 6.78906 6.80469C6.40234 7.16797 6.03906 7.49609 5.69922 7.78906L2.74609 10.1621L0.126953 6.89258L8.40625 0.300781H12.8711V26ZM29.3945 9.58203C30.9648 9.58203 32.3594 9.88086 33.5781 10.4785C34.8086 11.0762 35.7754 11.9551 36.4785 13.1152C37.1816 14.2754 37.5332 15.7051 37.5332 17.4043C37.5332 19.2559 37.1465 20.8555 36.373 22.2031C35.6113 23.5391 34.4688 24.5645 32.9453 25.2793C31.4336 25.9941 29.5469 26.3516 27.2852 26.3516C25.9375 26.3516 24.666 26.2344 23.4707 26C22.2871 25.7773 21.25 25.4316 20.3594 24.9629V20.2695C21.25 20.7383 22.3164 21.1367 23.5586 21.4648C24.8125 21.7812 25.9902 21.9395 27.0918 21.9395C28.1699 21.9395 29.0781 21.7988 29.8164 21.5176C30.5547 21.2246 31.1113 20.7793 31.4863 20.1816C31.873 19.5723 32.0664 18.7988 32.0664 17.8613C32.0664 16.6074 31.6445 15.6465 30.8008 14.9785C29.957 14.3105 28.6621 13.9766 26.916 13.9766C26.248 13.9766 25.5508 14.041 24.8242 14.1699C24.1094 14.2988 23.5117 14.4277 23.0312 14.5566L20.8691 13.3965L21.8359 0.300781H35.7754V4.90625H26.5996L26.125 9.95117C26.5234 9.86914 26.957 9.78711 27.4258 9.70508C27.8945 9.62305 28.5508 9.58203 29.3945 9.58203ZM51.4023 11.3926H58.2051V15.2422H51.4023V22.0098H47.5527V15.2422H40.75V11.3926H47.5527V4.53711H51.4023V11.3926Z" fill="black"/>
</svg>
