<svg width="81" height="29" viewBox="0 0 81 29" fill="none" xmlns="http://www.w3.org/2000/svg">
<path d="M12.8711 28H7.43945V13.1289C7.43945 12.7188 7.44531 12.2148 7.45703 11.6172C7.46875 11.0078 7.48633 10.3867 7.50977 9.75391C7.5332 9.10938 7.55664 8.5293 7.58008 8.01367C7.45117 8.16602 7.1875 8.42969 6.78906 8.80469C6.40234 9.16797 6.03906 9.49609 5.69922 9.78906L2.74609 12.1621L0.126953 8.89258L8.40625 2.30078H12.8711V28ZM29.3945 11.582C30.9648 11.582 32.3594 11.8809 33.5781 12.4785C34.8086 13.0762 35.7754 13.9551 36.4785 15.1152C37.1816 16.2754 37.5332 17.7051 37.5332 19.4043C37.5332 21.2559 37.1465 22.8555 36.373 24.2031C35.6113 25.5391 34.4688 26.5645 32.9453 27.2793C31.4336 27.9941 29.5469 28.3516 27.2852 28.3516C25.9375 28.3516 24.666 28.2344 23.4707 28C22.2871 27.7773 21.25 27.4316 20.3594 26.9629V22.2695C21.25 22.7383 22.3164 23.1367 23.5586 23.4648C24.8125 23.7812 25.9902 23.9395 27.0918 23.9395C28.1699 23.9395 29.0781 23.7988 29.8164 23.5176C30.5547 23.2246 31.1113 22.7793 31.4863 22.1816C31.873 21.5723 32.0664 20.7988 32.0664 19.8613C32.0664 18.6074 31.6445 17.6465 30.8008 16.9785C29.957 16.3105 28.6621 15.9766 26.916 15.9766C26.248 15.9766 25.5508 16.041 24.8242 16.1699C24.1094 16.2988 23.5117 16.4277 23.0312 16.5566L20.8691 15.3965L21.8359 2.30078H35.7754V6.90625H26.5996L26.125 11.9512C26.5234 11.8691 26.957 11.7871 27.4258 11.7051C27.8945 11.623 28.5508 11.582 29.3945 11.582ZM47.377 0.648438V12.8828C47.377 13.6211 47.3477 14.3594 47.2891 15.0977C47.2305 15.8359 47.166 16.5742 47.0957 17.3125H47.166C47.5293 16.7969 47.8984 16.2871 48.2734 15.7832C48.6602 15.2793 49.0703 14.793 49.5039 14.3242L55.0059 8.34766H61.0527L53.248 16.873L61.5273 28H55.3398L49.6797 20.0371L47.377 21.8828V28H42.0156V0.648438H47.377ZM73.7266 13.3926H80.5293V17.2422H73.7266V24.0098H69.877V17.2422H63.0742V13.3926H69.877V6.53711H73.7266V13.3926Z" fill="black"/>
</svg>
