<svg width="61" height="28" viewBox="0 0 61 28" fill="none" xmlns="http://www.w3.org/2000/svg">
<path d="M18.4062 28H0.441406V24.2207L6.89258 17.6992C8.19336 16.3633 9.23633 15.25 10.0215 14.3594C10.8184 13.457 11.3926 12.6367 11.7441 11.8984C12.1074 11.1602 12.2891 10.3691 12.2891 9.52539C12.2891 8.50586 12.002 7.74414 11.4277 7.24023C10.8652 6.72461 10.1094 6.4668 9.16016 6.4668C8.16406 6.4668 7.19727 6.69531 6.25977 7.15234C5.32227 7.60938 4.34375 8.25977 3.32422 9.10352L0.371094 5.60547C1.10938 4.97266 1.88867 4.375 2.70898 3.8125C3.54102 3.25 4.50195 2.79883 5.5918 2.45898C6.69336 2.10742 8.01172 1.93164 9.54688 1.93164C11.2344 1.93164 12.6816 2.23633 13.8887 2.8457C15.1074 3.45508 16.0449 4.28711 16.7012 5.3418C17.3574 6.38477 17.6855 7.56836 17.6855 8.89258C17.6855 10.3105 17.4043 11.6055 16.8418 12.7773C16.2793 13.9492 15.459 15.1094 14.3809 16.2578C13.3145 17.4062 12.0254 18.6777 10.5137 20.0723L7.20898 23.1836V23.4297H18.4062V28ZM27.7754 0.648438V12.8828C27.7754 13.6211 27.7461 14.3594 27.6875 15.0977C27.6289 15.8359 27.5645 16.5742 27.4941 17.3125H27.5645C27.9277 16.7969 28.2969 16.2871 28.6719 15.7832C29.0586 15.2793 29.4688 14.793 29.9023 14.3242L35.4043 8.34766H41.4512L33.6465 16.873L41.9258 28H35.7383L30.0781 20.0371L27.7754 21.8828V28H22.4141V0.648438H27.7754ZM54.125 13.3926H60.9277V17.2422H54.125V24.0098H50.2754V17.2422H43.4727V13.3926H50.2754V6.53711H54.125V13.3926Z" fill="black"/>
</svg>
