<svg width="80" height="28" viewBox="0 0 80 28" fill="none" xmlns="http://www.w3.org/2000/svg">
<path d="M0.265625 16.084C0.265625 14.6074 0.371094 13.1484 0.582031 11.707C0.804688 10.2539 1.18555 8.88867 1.72461 7.61133C2.26367 6.32227 3.01953 5.18555 3.99219 4.20117C4.96484 3.20508 6.20117 2.42578 7.70117 1.86328C9.20117 1.28906 11.0176 1.00195 13.1504 1.00195C13.6543 1.00195 14.2402 1.02539 14.9082 1.07227C15.5879 1.10742 16.1504 1.17188 16.5957 1.26562V5.60742C16.127 5.50195 15.623 5.41992 15.084 5.36133C14.5566 5.29102 14.0293 5.25586 13.502 5.25586C11.3691 5.25586 9.7168 5.5957 8.54492 6.27539C7.38477 6.95508 6.56445 7.89844 6.08398 9.10547C5.61523 10.3008 5.33984 11.6953 5.25781 13.2891H5.48633C5.81445 12.7148 6.22461 12.2051 6.7168 11.7598C7.2207 11.3145 7.83008 10.9629 8.54492 10.7051C9.25977 10.4355 10.0977 10.3008 11.0586 10.3008C12.5586 10.3008 13.8594 10.623 14.9609 11.2676C16.0625 11.9004 16.9121 12.8203 17.5098 14.0273C18.1074 15.2344 18.4062 16.7051 18.4062 18.4395C18.4062 20.291 18.0488 21.8848 17.334 23.2207C16.6191 24.5566 15.6055 25.582 14.293 26.2969C12.9922 27 11.4453 27.3516 9.65234 27.3516C8.33984 27.3516 7.11523 27.1289 5.97852 26.6836C4.8418 26.2266 3.8457 25.5352 2.99023 24.6094C2.13477 23.6836 1.4668 22.5176 0.986328 21.1113C0.505859 19.6934 0.265625 18.0176 0.265625 16.084ZM9.54688 23.0098C10.6133 23.0098 11.4805 22.6465 12.1484 21.9199C12.8164 21.1934 13.1504 20.0566 13.1504 18.5098C13.1504 17.2559 12.8574 16.2715 12.2715 15.5566C11.6973 14.8301 10.8242 14.4668 9.65234 14.4668C8.85547 14.4668 8.15234 14.6484 7.54297 15.0117C6.94531 15.3633 6.48242 15.8145 6.1543 16.3652C5.82617 16.9043 5.66211 17.4609 5.66211 18.0352C5.66211 18.6328 5.74414 19.2246 5.9082 19.8105C6.07227 20.3965 6.31836 20.9297 6.64648 21.4102C6.97461 21.8906 7.37891 22.2773 7.85938 22.5703C8.35156 22.8633 8.91406 23.0098 9.54688 23.0098ZM30.3945 10.582C31.9648 10.582 33.3594 10.8809 34.5781 11.4785C35.8086 12.0762 36.7754 12.9551 37.4785 14.1152C38.1816 15.2754 38.5332 16.7051 38.5332 18.4043C38.5332 20.2559 38.1465 21.8555 37.373 23.2031C36.6113 24.5391 35.4688 25.5645 33.9453 26.2793C32.4336 26.9941 30.5469 27.3516 28.2852 27.3516C26.9375 27.3516 25.666 27.2344 24.4707 27C23.2871 26.7773 22.25 26.4316 21.3594 25.9629V21.2695C22.25 21.7383 23.3164 22.1367 24.5586 22.4648C25.8125 22.7812 26.9902 22.9395 28.0918 22.9395C29.1699 22.9395 30.0781 22.7988 30.8164 22.5176C31.5547 22.2246 32.1113 21.7793 32.4863 21.1816C32.873 20.5723 33.0664 19.7988 33.0664 18.8613C33.0664 17.6074 32.6445 16.6465 31.8008 15.9785C30.957 15.3105 29.6621 14.9766 27.916 14.9766C27.248 14.9766 26.5508 15.041 25.8242 15.1699C25.1094 15.2988 24.5117 15.4277 24.0312 15.5566L21.8691 14.3965L22.8359 1.30078H36.7754V5.90625H27.5996L27.125 10.9512C27.5234 10.8691 27.957 10.7871 28.4258 10.7051C28.8945 10.623 29.5508 10.582 30.3945 10.582ZM59.4688 14.1504C59.4688 16.2246 59.3047 18.0762 58.9766 19.7051C58.6602 21.334 58.1445 22.7168 57.4297 23.8535C56.7266 24.9902 55.8008 25.8574 54.6523 26.4551C53.5039 27.0527 52.1094 27.3516 50.4688 27.3516C48.4062 27.3516 46.7129 26.8301 45.3887 25.7871C44.0645 24.7324 43.0859 23.2207 42.4531 21.252C41.8203 19.2715 41.5039 16.9043 41.5039 14.1504C41.5039 11.373 41.791 9 42.3652 7.03125C42.9512 5.05078 43.9004 3.5332 45.2129 2.47852C46.5254 1.42383 48.2773 0.896484 50.4688 0.896484C52.5195 0.896484 54.207 1.42383 55.5312 2.47852C56.8672 3.52148 57.8574 5.0332 58.502 7.01367C59.1465 8.98242 59.4688 11.3613 59.4688 14.1504ZM46.9004 14.1504C46.9004 16.1074 47.0059 17.7422 47.2168 19.0547C47.4395 20.3555 47.8086 21.334 48.3242 21.9902C48.8398 22.6465 49.5547 22.9746 50.4688 22.9746C51.3711 22.9746 52.0801 22.6523 52.5957 22.0078C53.123 21.3516 53.498 20.373 53.7207 19.0723C53.9434 17.7598 54.0547 16.1191 54.0547 14.1504C54.0547 12.1934 53.9434 10.5586 53.7207 9.24609C53.498 7.93359 53.123 6.94922 52.5957 6.29297C52.0801 5.625 51.3711 5.29102 50.4688 5.29102C49.5547 5.29102 48.8398 5.625 48.3242 6.29297C47.8086 6.94922 47.4395 7.93359 47.2168 9.24609C47.0059 10.5586 46.9004 12.1934 46.9004 14.1504ZM73.0039 12.3926H79.8066V16.2422H73.0039V23.0098H69.1543V16.2422H62.3516V12.3926H69.1543V5.53711H73.0039V12.3926Z" fill="black"/>
</svg>
