<svg width="301" height="108" viewBox="0 0 301 108" fill="none" xmlns="http://www.w3.org/2000/svg">
<path d="M16.2939 13.0459C16.2939 14.654 16.0009 15.9984 15.4149 17.0791C14.829 18.1533 13.9794 18.9639 12.8661 19.5107C11.7593 20.0511 10.4149 20.3213 8.83292 20.3213H4.95596V6.04395H9.2626C10.7144 6.04395 11.9644 6.31087 13.0126 6.84473C14.0608 7.37207 14.8681 8.15658 15.4345 9.19824C16.0074 10.2334 16.2939 11.516 16.2939 13.0459ZM14.5458 13.1045C14.5458 11.8219 14.331 10.764 13.9013 9.93066C13.4781 9.09733 12.8531 8.47884 12.0263 8.0752C11.206 7.66504 10.2001 7.45996 9.0087 7.45996H6.61612V18.8955H8.6376C10.6037 18.8955 12.0784 18.4105 13.0614 17.4404C14.051 16.4704 14.5458 15.0251 14.5458 13.1045ZM20.9446 9.61816V20.3213H19.3235V9.61816H20.9446ZM20.1536 5.61426C20.4205 5.61426 20.6484 5.70215 20.8372 5.87793C21.0325 6.0472 21.1302 6.31413 21.1302 6.67871C21.1302 7.03678 21.0325 7.30371 20.8372 7.47949C20.6484 7.65527 20.4205 7.74316 20.1536 7.74316C19.8737 7.74316 19.6393 7.65527 19.4505 7.47949C19.2682 7.30371 19.1771 7.03678 19.1771 6.67871C19.1771 6.31413 19.2682 6.0472 19.4505 5.87793C19.6393 5.70215 19.8737 5.61426 20.1536 5.61426ZM31.406 17.3916C31.406 18.0752 31.2334 18.6514 30.8884 19.1201C30.5498 19.5824 30.0616 19.9307 29.4235 20.165C28.792 20.3994 28.0368 20.5166 27.1579 20.5166C26.4092 20.5166 25.7614 20.458 25.2146 20.3408C24.6677 20.2236 24.1892 20.0576 23.779 19.8428V18.3486C24.2152 18.5635 24.736 18.7588 25.3415 18.9346C25.947 19.1104 26.5655 19.1982 27.197 19.1982C28.1215 19.1982 28.792 19.0485 29.2087 18.749C29.6254 18.4495 29.8337 18.0426 29.8337 17.5283C29.8337 17.2354 29.7491 16.9782 29.5798 16.7568C29.417 16.529 29.1403 16.3109 28.7497 16.1025C28.3591 15.8877 27.8187 15.6533 27.1286 15.3994C26.445 15.139 25.8526 14.8818 25.3513 14.6279C24.8565 14.3675 24.4724 14.0518 24.1989 13.6807C23.932 13.3096 23.7985 12.8278 23.7985 12.2354C23.7985 11.3304 24.1631 10.637 24.8923 10.1553C25.628 9.66699 26.5915 9.42285 27.7829 9.42285C28.4274 9.42285 29.0297 9.48796 29.5896 9.61816C30.156 9.74186 30.6833 9.91113 31.1716 10.126L30.6247 11.4248C30.182 11.236 29.71 11.0765 29.2087 10.9463C28.7074 10.8161 28.1963 10.751 27.6755 10.751C26.9268 10.751 26.3506 10.8747 25.947 11.1221C25.5498 11.3695 25.3513 11.708 25.3513 12.1377C25.3513 12.4697 25.4424 12.7432 25.6247 12.958C25.8135 13.1729 26.113 13.3747 26.5232 13.5635C26.9333 13.7523 27.4737 13.9736 28.1442 14.2275C28.8148 14.4749 29.3942 14.7321 29.8825 14.999C30.3708 15.2594 30.7452 15.5785 31.0056 15.9561C31.2725 16.3271 31.406 16.8057 31.406 17.3916ZM38.4005 20.5166C37.437 20.5166 36.5873 20.318 35.8517 19.9209C35.116 19.5238 34.5431 18.9183 34.1329 18.1045C33.7228 17.2907 33.5177 16.2653 33.5177 15.0283C33.5177 13.7327 33.7325 12.6748 34.1622 11.8545C34.5984 11.0277 35.1974 10.4157 35.9591 10.0186C36.7208 9.62142 37.5867 9.42285 38.5567 9.42285C39.0906 9.42285 39.6049 9.47819 40.0997 9.58887C40.601 9.69303 41.0112 9.8265 41.3302 9.98926L40.8419 11.3467C40.5164 11.2165 40.1388 11.0993 39.7091 10.9951C39.2859 10.891 38.8888 10.8389 38.5177 10.8389C37.7755 10.8389 37.157 10.9984 36.6622 11.3174C36.1739 11.6364 35.8061 12.1051 35.5587 12.7236C35.3178 13.3421 35.1974 14.1038 35.1974 15.0088C35.1974 15.8747 35.3146 16.6136 35.5489 17.2256C35.7898 17.8376 36.1446 18.3063 36.6134 18.6318C37.0886 18.9508 37.6811 19.1104 38.3907 19.1104C38.9571 19.1104 39.4682 19.0518 39.9239 18.9346C40.3797 18.8109 40.7931 18.6676 41.1642 18.5049V19.9502C40.8061 20.1325 40.4057 20.2725 39.963 20.3701C39.5268 20.4678 39.006 20.5166 38.4005 20.5166ZM53.0317 14.9502C53.0317 15.8291 52.9178 16.6136 52.6899 17.3037C52.4621 17.9938 52.1333 18.5765 51.7036 19.0518C51.2739 19.527 50.7531 19.8916 50.1411 20.1455C49.5357 20.3929 48.8488 20.5166 48.0806 20.5166C47.3644 20.5166 46.7069 20.3929 46.1079 20.1455C45.5155 19.8916 45.0011 19.527 44.5649 19.0518C44.1353 18.5765 43.8 17.9938 43.5591 17.3037C43.3247 16.6136 43.2075 15.8291 43.2075 14.9502C43.2075 13.7783 43.4061 12.7822 43.8032 11.9619C44.2004 11.1351 44.7668 10.5068 45.5024 10.0771C46.2446 9.64095 47.1268 9.42285 48.1489 9.42285C49.1255 9.42285 49.9784 9.64095 50.7075 10.0771C51.4432 10.5133 52.0129 11.1449 52.4165 11.9717C52.8267 12.792 53.0317 13.7848 53.0317 14.9502ZM44.8872 14.9502C44.8872 15.8096 45.0011 16.555 45.229 17.1865C45.4569 17.818 45.8084 18.3063 46.2837 18.6514C46.759 18.9964 47.3709 19.1689 48.1196 19.1689C48.8618 19.1689 49.4705 18.9964 49.9458 18.6514C50.4276 18.3063 50.7824 17.818 51.0103 17.1865C51.2381 16.555 51.3521 15.8096 51.3521 14.9502C51.3521 14.0973 51.2381 13.3617 51.0103 12.7432C50.7824 12.1182 50.4308 11.6364 49.9556 11.2979C49.4803 10.9593 48.8651 10.79 48.1099 10.79C46.9966 10.79 46.1795 11.1579 45.6587 11.8936C45.1444 12.6292 44.8872 13.6481 44.8872 14.9502ZM58.288 20.3213L54.2255 9.61816H55.9638L58.3173 16.0928C58.4801 16.5355 58.6461 17.0238 58.8153 17.5576C58.9846 18.0915 59.1018 18.5212 59.1669 18.8467H59.2353C59.3134 18.5212 59.4436 18.0915 59.6259 17.5576C59.8082 17.0173 59.9742 16.529 60.1239 16.0928L62.4774 9.61816H64.2157L60.1435 20.3213H58.288ZM70.1556 9.42285C71.067 9.42285 71.8483 9.62467 72.4993 10.0283C73.1504 10.432 73.6484 10.9984 73.9935 11.7275C74.3385 12.4502 74.511 13.2965 74.511 14.2666V15.2725H67.1185C67.138 16.529 67.4505 17.486 68.056 18.1436C68.6614 18.8011 69.5143 19.1299 70.6146 19.1299C71.2916 19.1299 71.8906 19.068 72.4114 18.9443C72.9323 18.8206 73.4726 18.6383 74.0325 18.3975V19.8232C73.4922 20.0641 72.9551 20.2399 72.4212 20.3506C71.8939 20.4613 71.2689 20.5166 70.5462 20.5166C69.5176 20.5166 68.6191 20.3083 67.8509 19.8916C67.0892 19.4684 66.4967 18.8499 66.0735 18.0361C65.6504 17.2223 65.4388 16.2262 65.4388 15.0479C65.4388 13.8955 65.6308 12.8994 66.0149 12.0596C66.4056 11.2132 66.9524 10.5622 67.6556 10.1064C68.3652 9.65072 69.1985 9.42285 70.1556 9.42285ZM70.136 10.751C69.2702 10.751 68.5801 11.0342 68.0657 11.6006C67.5514 12.167 67.2454 12.958 67.1478 13.9736H72.8118C72.8053 13.3356 72.7044 12.7757 72.5091 12.2939C72.3203 11.8057 72.0306 11.4281 71.6399 11.1611C71.2493 10.8877 70.748 10.751 70.136 10.751ZM82.2282 9.42285C82.4431 9.42285 82.6677 9.43587 82.9021 9.46191C83.1364 9.48145 83.3448 9.51074 83.5271 9.5498L83.322 11.0537C83.1462 11.0081 82.9509 10.9723 82.736 10.9463C82.5212 10.9202 82.3194 10.9072 82.1306 10.9072C81.7009 10.9072 81.294 10.9951 80.9099 11.1709C80.5323 11.3402 80.2002 11.5876 79.9138 11.9131C79.6273 12.2321 79.4027 12.6195 79.2399 13.0752C79.0772 13.5244 78.9958 14.0257 78.9958 14.5791V20.3213H77.3649V9.61816H78.7126L78.8884 11.5908H78.9567C79.1781 11.1937 79.445 10.8324 79.7575 10.5068C80.07 10.1748 80.4314 9.91113 80.8415 9.71582C81.2582 9.52051 81.7204 9.42285 82.2282 9.42285ZM100.172 14.9502C100.172 15.8291 100.058 16.6136 99.8306 17.3037C99.6027 17.9938 99.2739 18.5765 98.8442 19.0518C98.4146 19.527 97.8937 19.8916 97.2817 20.1455C96.6763 20.3929 95.9894 20.5166 95.2212 20.5166C94.5051 20.5166 93.8475 20.3929 93.2485 20.1455C92.6561 19.8916 92.1418 19.527 91.7056 19.0518C91.2759 18.5765 90.9406 17.9938 90.6997 17.3037C90.4653 16.6136 90.3482 15.8291 90.3482 14.9502C90.3482 13.7783 90.5467 12.7822 90.9439 11.9619C91.341 11.1351 91.9074 10.5068 92.6431 10.0771C93.3853 9.64095 94.2674 9.42285 95.2896 9.42285C96.2661 9.42285 97.119 9.64095 97.8482 10.0771C98.5838 10.5133 99.1535 11.1449 99.5571 11.9717C99.9673 12.792 100.172 13.7848 100.172 14.9502ZM92.0278 14.9502C92.0278 15.8096 92.1418 16.555 92.3696 17.1865C92.5975 17.818 92.9491 18.3063 93.4243 18.6514C93.8996 18.9964 94.5116 19.1689 95.2603 19.1689C96.0024 19.1689 96.6112 18.9964 97.0864 18.6514C97.5682 18.3063 97.923 17.818 98.1509 17.1865C98.3788 16.555 98.4927 15.8096 98.4927 14.9502C98.4927 14.0973 98.3788 13.3617 98.1509 12.7432C97.923 12.1182 97.5715 11.6364 97.0962 11.2979C96.6209 10.9593 96.0057 10.79 95.2505 10.79C94.1372 10.79 93.3202 11.1579 92.7993 11.8936C92.285 12.6292 92.0278 13.6481 92.0278 14.9502ZM111.913 9.61816V20.3213H110.585L110.35 18.8174H110.263C110.041 19.1885 109.755 19.501 109.403 19.7549C109.052 20.0088 108.655 20.1976 108.212 20.3213C107.776 20.4515 107.31 20.5166 106.815 20.5166C105.969 20.5166 105.259 20.3799 104.686 20.1064C104.114 19.833 103.681 19.4098 103.388 18.8369C103.101 18.264 102.958 17.5283 102.958 16.6299V9.61816H104.599V16.5127C104.599 17.4046 104.8 18.0719 105.204 18.5146C105.608 18.9508 106.223 19.1689 107.05 19.1689C107.844 19.1689 108.475 19.0192 108.944 18.7197C109.42 18.4202 109.761 17.9808 109.97 17.4014C110.178 16.8154 110.282 16.0993 110.282 15.2529V9.61816H111.913ZM120.304 9.42285C120.519 9.42285 120.743 9.43587 120.978 9.46191C121.212 9.48145 121.421 9.51074 121.603 9.5498L121.398 11.0537C121.222 11.0081 121.027 10.9723 120.812 10.9463C120.597 10.9202 120.395 10.9072 120.206 10.9072C119.777 10.9072 119.37 10.9951 118.986 11.1709C118.608 11.3402 118.276 11.5876 117.99 11.9131C117.703 12.2321 117.478 12.6195 117.316 13.0752C117.153 13.5244 117.072 14.0257 117.072 14.5791V20.3213H115.441V9.61816H116.788L116.964 11.5908H117.033C117.254 11.1937 117.521 10.8324 117.833 10.5068C118.146 10.1748 118.507 9.91113 118.917 9.71582C119.334 9.52051 119.796 9.42285 120.304 9.42285ZM133.024 9.44238C134.3 9.44238 135.247 9.72884 135.865 10.3018C136.484 10.8747 136.793 11.7894 136.793 13.0459V20.3213H135.611L135.299 18.7393H135.221C134.921 19.1299 134.609 19.4587 134.283 19.7256C133.958 19.986 133.58 20.1846 133.15 20.3213C132.727 20.4515 132.206 20.5166 131.588 20.5166C130.937 20.5166 130.358 20.4027 129.85 20.1748C129.348 19.9469 128.951 19.6019 128.658 19.1396C128.372 18.6774 128.229 18.0915 128.229 17.3818C128.229 16.3141 128.652 15.4938 129.498 14.9209C130.345 14.348 131.634 14.0355 133.365 13.9834L135.211 13.9053V13.251C135.211 12.3265 135.012 11.6787 134.615 11.3076C134.218 10.9365 133.658 10.751 132.936 10.751C132.376 10.751 131.842 10.8324 131.334 10.9951C130.826 11.1579 130.345 11.3499 129.889 11.5713L129.391 10.3408C129.873 10.0934 130.426 9.88184 131.051 9.70605C131.676 9.53027 132.333 9.44238 133.024 9.44238ZM135.192 15.0479L133.561 15.1162C132.226 15.1683 131.285 15.3864 130.738 15.7705C130.192 16.1546 129.918 16.6982 129.918 17.4014C129.918 18.0133 130.104 18.4658 130.475 18.7588C130.846 19.0518 131.337 19.1982 131.949 19.1982C132.9 19.1982 133.678 18.9346 134.283 18.4072C134.889 17.8799 135.192 17.0889 135.192 16.0342V15.0479ZM145.262 9.42285C146.597 9.42285 147.661 9.88184 148.456 10.7998C149.25 11.7178 149.647 13.098 149.647 14.9404C149.647 16.1579 149.465 17.18 149.1 18.0068C148.736 18.8337 148.221 19.4587 147.557 19.8818C146.9 20.305 146.122 20.5166 145.223 20.5166C144.657 20.5166 144.159 20.4417 143.729 20.292C143.299 20.1423 142.931 19.9404 142.625 19.6865C142.319 19.4326 142.066 19.1559 141.864 18.8564H141.747C141.766 19.1104 141.789 19.4163 141.815 19.7744C141.847 20.1325 141.864 20.445 141.864 20.7119V25.1064H140.233V9.61816H141.571L141.786 11.2002H141.864C142.072 10.8747 142.326 10.5785 142.625 10.3115C142.925 10.0381 143.29 9.82324 143.719 9.66699C144.155 9.50423 144.67 9.42285 145.262 9.42285ZM144.979 10.79C144.237 10.79 143.638 10.9333 143.182 11.2197C142.733 11.5062 142.404 11.9359 142.196 12.5088C141.987 13.0752 141.877 13.7881 141.864 14.6475V14.96C141.864 15.8649 141.961 16.6299 142.157 17.2549C142.359 17.8799 142.687 18.3551 143.143 18.6807C143.605 19.0062 144.224 19.1689 144.999 19.1689C145.663 19.1689 146.216 18.9899 146.659 18.6318C147.101 18.2738 147.43 17.7757 147.645 17.1377C147.866 16.4932 147.977 15.7542 147.977 14.9209C147.977 13.6579 147.73 12.6553 147.235 11.9131C146.747 11.1644 145.995 10.79 144.979 10.79ZM157.608 9.42285C158.943 9.42285 160.007 9.88184 160.802 10.7998C161.596 11.7178 161.993 13.098 161.993 14.9404C161.993 16.1579 161.811 17.18 161.446 18.0068C161.082 18.8337 160.567 19.4587 159.903 19.8818C159.246 20.305 158.468 20.5166 157.569 20.5166C157.003 20.5166 156.505 20.4417 156.075 20.292C155.645 20.1423 155.278 19.9404 154.972 19.6865C154.666 19.4326 154.412 19.1559 154.21 18.8564H154.093C154.112 19.1104 154.135 19.4163 154.161 19.7744C154.194 20.1325 154.21 20.445 154.21 20.7119V25.1064H152.579V9.61816H153.917L154.132 11.2002H154.21C154.418 10.8747 154.672 10.5785 154.972 10.3115C155.271 10.0381 155.636 9.82324 156.065 9.66699C156.502 9.50423 157.016 9.42285 157.608 9.42285ZM157.325 10.79C156.583 10.79 155.984 10.9333 155.528 11.2197C155.079 11.5062 154.75 11.9359 154.542 12.5088C154.334 13.0752 154.223 13.7881 154.21 14.6475V14.96C154.21 15.8649 154.308 16.6299 154.503 17.2549C154.705 17.8799 155.033 18.3551 155.489 18.6807C155.951 19.0062 156.57 19.1689 157.345 19.1689C158.009 19.1689 158.562 18.9899 159.005 18.6318C159.447 18.2738 159.776 17.7757 159.991 17.1377C160.212 16.4932 160.323 15.7542 160.323 14.9209C160.323 13.6579 160.076 12.6553 159.581 11.9131C159.093 11.1644 158.341 10.79 157.325 10.79Z" fill="#5E6282"/>
<rect x="0.191528" y="57.9531" width="150.406" height="49.1982" rx="17.5" fill="#080809"/>
<g clip-path="url(#clip0_19_390)">
<path d="M40.2633 81.8518L26.1455 95.4463C25.4844 94.9945 25.0919 94.243 25.0988 93.4423V70.2614C25.0919 69.4607 25.4844 68.7091 26.1455 68.2573L40.2633 81.8518Z" fill="#2196F3"/>
<path d="M45.2033 77.1036L40.2633 81.8521L26.1455 68.2576C26.1987 68.2164 26.2541 68.178 26.3114 68.1427C27.0576 67.6905 27.9896 67.6759 28.7495 68.1044L45.2033 77.1036Z" fill="#4CAF50"/>
<path d="M51.19 81.852C51.1992 82.7559 50.708 83.5909 49.9135 84.0221L45.2033 86.6005L40.2634 81.852L45.2033 77.1035L49.9135 79.682C50.708 80.1132 51.1992 80.9481 51.19 81.852Z" fill="#F0BB1F"/>
<path d="M45.2033 86.6006L28.7495 95.5997C27.9879 96.0216 27.0594 96.007 26.3114 95.5614C26.2541 95.5261 26.1987 95.4878 26.1455 95.4466L40.2634 81.8521L45.2033 86.6006Z" fill="#F15A2B"/>
</g>
<path d="M67.6971 74.6528H63.75V76.2271H65.8529C65.5718 76.9805 64.8858 77.4416 63.84 77.4416C62.3106 77.4416 61.366 76.4633 61.366 75.1251C61.366 73.7419 62.3556 72.7635 63.6826 72.7635C64.5709 72.7635 65.2794 73.1684 65.6055 73.6857L67.1349 72.8085C66.4714 71.7515 65.2007 71.0093 63.6938 71.0093C61.3773 71.0093 59.5668 72.831 59.5668 75.1138C59.5668 77.3741 61.3435 79.1959 63.8175 79.1959C66.0216 79.1959 67.6971 77.734 67.6971 75.3275V74.6528Z" fill="white"/>
<path d="M69.9485 77.3067V75.9122H72.7598V74.2029H69.9485V72.8985H73.0409V71.1667H68.1492V79.0384H73.0972V77.3067H69.9485Z" fill="white"/>
<path d="M78.8353 71.1667H72.9878V72.8985H75.0119V79.0384H76.8112V72.8985H78.8353V71.1667Z" fill="white"/>
<path d="M81.3098 71.1667V79.0384H83.109V71.1667H81.3098Z" fill="white"/>
<path d="M89.1845 71.1667H83.337V72.8985H85.3611V79.0384H87.1604V72.8985H89.1845V71.1667Z" fill="white"/>
<path d="M95.4149 79.1959C97.6752 79.1959 99.5082 77.4191 99.5082 75.1026C99.5082 72.786 97.6752 71.0093 95.4149 71.0093C93.1546 71.0093 91.3216 72.786 91.3216 75.1026C91.3216 77.4191 93.1546 79.1959 95.4149 79.1959ZM95.4149 77.4416C94.1329 77.4416 93.1208 76.5082 93.1208 75.1026C93.1208 73.6969 94.1329 72.7635 95.4149 72.7635C96.6968 72.7635 97.7089 73.6969 97.7089 75.1026C97.7089 76.5082 96.6968 77.4416 95.4149 77.4416Z" fill="white"/>
<path d="M104.345 71.1667V75.4399L101.308 71.1667H99.959V79.0384H101.758V74.7652L104.794 79.0384H106.144V71.1667H104.345Z" fill="white"/>
<path d="M67.6971 88.0234V88.3271C67.6971 89.3091 67.3485 90.1376 66.6513 90.8123C65.9541 91.4795 65.0357 91.8131 63.8962 91.8131C62.6967 91.8131 61.7071 91.4233 60.9275 90.6436C60.1478 89.8564 59.7579 88.8931 59.7579 87.7535C59.7579 86.614 60.144 85.6544 60.9162 84.8747C61.6884 84.0876 62.6667 83.694 63.8512 83.694C64.5709 83.694 65.2307 83.8664 65.8304 84.2113C66.4377 84.5561 66.9062 85.0172 67.2361 85.5944L66.7075 85.9093C66.4452 85.4145 66.0553 85.0172 65.538 84.7173C65.0282 84.4174 64.466 84.2675 63.8512 84.2675C62.8317 84.2675 61.992 84.6049 61.3323 85.2796C60.6801 85.9468 60.3539 86.7715 60.3539 87.7535C60.3539 88.7356 60.6838 89.564 61.3435 90.2388C62.0033 90.906 62.8542 91.2396 63.8962 91.2396C64.8183 91.2396 65.5643 90.9884 66.134 90.4862C66.7038 89.9839 67.0224 89.3504 67.0899 88.5857H63.75V88.0234H67.6971Z" fill="white"/>
<path d="M75.6794 90.6323C74.8922 91.4195 73.9326 91.8131 72.8006 91.8131C71.6685 91.8131 70.7089 91.4195 69.9218 90.6323C69.1346 89.8377 68.741 88.8781 68.741 87.7535C68.741 86.629 69.1346 85.6732 69.9218 84.886C70.7089 84.0913 71.6685 83.694 72.8006 83.694C73.9326 83.694 74.8922 84.0913 75.6794 84.886C76.4665 85.6732 76.8601 86.629 76.8601 87.7535C76.8601 88.8781 76.4665 89.8377 75.6794 90.6323ZM70.3378 90.2275C71.0126 90.9022 71.8335 91.2396 72.8006 91.2396C73.7677 91.2396 74.5848 90.9022 75.252 90.2275C75.9268 89.5453 76.2641 88.7206 76.2641 87.7535C76.2641 86.7864 75.9268 85.9655 75.252 85.2908C74.5848 84.6086 73.7677 84.2675 72.8006 84.2675C71.8335 84.2675 71.0126 84.6086 70.3378 85.2908C69.6706 85.9655 69.337 86.7864 69.337 87.7535C69.337 88.7206 69.6706 89.5453 70.3378 90.2275Z" fill="white"/>
<path d="M84.8601 90.6323C84.0729 91.4195 83.1133 91.8131 81.9813 91.8131C80.8493 91.8131 79.8897 91.4195 79.1025 90.6323C78.3153 89.8377 77.9218 88.8781 77.9218 87.7535C77.9218 86.629 78.3153 85.6732 79.1025 84.886C79.8897 84.0913 80.8493 83.694 81.9813 83.694C83.1133 83.694 84.0729 84.0913 84.8601 84.886C85.6473 85.6732 86.0409 86.629 86.0409 87.7535C86.0409 88.8781 85.6473 89.8377 84.8601 90.6323ZM79.5186 90.2275C80.1933 90.9022 81.0142 91.2396 81.9813 91.2396C82.9484 91.2396 83.7656 90.9022 84.4328 90.2275C85.1075 89.5453 85.4449 88.7206 85.4449 87.7535C85.4449 86.7864 85.1075 85.9655 84.4328 85.2908C83.7656 84.6086 82.9484 84.2675 81.9813 84.2675C81.0142 84.2675 80.1933 84.6086 79.5186 85.2908C78.8514 85.9655 78.5178 86.7864 78.5178 87.7535C78.5178 88.7206 78.8514 89.5453 79.5186 90.2275Z" fill="white"/>
<path d="M95.0417 88.0234V88.3271C95.0417 89.3091 94.6931 90.1376 93.9959 90.8123C93.2987 91.4795 92.3803 91.8131 91.2408 91.8131C90.0413 91.8131 89.0517 91.4233 88.272 90.6436C87.4923 89.8564 87.1025 88.8931 87.1025 87.7535C87.1025 86.614 87.4886 85.6544 88.2608 84.8747C89.0329 84.0876 90.0113 83.694 91.1958 83.694C91.9155 83.694 92.5752 83.8664 93.175 84.2113C93.7822 84.5561 94.2508 85.0172 94.5806 85.5944L94.0521 85.9093C93.7897 85.4145 93.3999 85.0172 92.8826 84.7173C92.3728 84.4174 91.8105 84.2675 91.1958 84.2675C90.1762 84.2675 89.3366 84.6049 88.6768 85.2796C88.0246 85.9468 87.6985 86.7715 87.6985 87.7535C87.6985 88.7356 88.0284 89.564 88.6881 90.2388C89.3478 90.906 90.1987 91.2396 91.2408 91.2396C92.1629 91.2396 92.9088 90.9884 93.4786 90.4862C94.0483 89.9839 94.367 89.3504 94.4344 88.5857H91.0946V88.0234H95.0417Z" fill="white"/>
<path d="M97.1314 91.1271H100.842V91.6894H96.5354V83.8177H97.1314V91.1271Z" fill="white"/>
<path d="M102.677 91.1271H106.613V91.6894H102.081V83.8177H106.557V84.38H102.677V87.4387H106.276V88.0009H102.677V91.1271Z" fill="white"/>
<path d="M113.752 83.8177C114.456 83.8177 115.041 84.0501 115.506 84.5149C115.971 84.9797 116.203 85.5607 116.203 86.2579C116.203 86.9551 115.971 87.5361 115.506 88.0009C115.041 88.4583 114.456 88.6869 113.752 88.6869H111.671V91.6894H111.075V83.8177H113.752ZM113.752 88.1246C114.291 88.1246 114.734 87.9485 115.079 87.5961C115.431 87.2438 115.607 86.7977 115.607 86.2579C115.607 85.7106 115.431 85.2608 115.079 84.9085C114.734 84.5561 114.291 84.38 113.752 84.38H111.671V88.1246H113.752Z" fill="white"/>
<path d="M118.271 91.1271H121.982V91.6894H117.675V83.8177H118.271V91.1271Z" fill="white"/>
<path d="M128.737 91.6894L127.973 89.6877H124.025L123.261 91.6894H122.631L125.69 83.8177H126.319L129.367 91.6894H128.737ZM124.25 89.1255H127.759L126.005 84.5486L124.25 89.1255Z" fill="white"/>
<path d="M134.968 83.8177L132.1 88.4508V91.6894H131.504V88.4508L128.637 83.8177H129.311L131.808 87.8772L134.293 83.8177H134.968Z" fill="white"/>
<rect x="160.437" y="57.9531" width="140.566" height="49.1982" rx="17.5" fill="#080809"/>
<path d="M191.066 91.689C187.718 91.6697 184.949 84.8367 184.949 81.3569C184.949 75.6726 189.214 74.4281 190.857 74.4281C191.598 74.4281 192.388 74.719 193.086 74.9763C193.574 75.1559 194.078 75.3412 194.359 75.3412C194.527 75.3412 194.922 75.1835 195.272 75.0452C196.017 74.7486 196.944 74.3799 198.024 74.3799C198.026 74.3799 198.028 74.3799 198.03 74.3799C198.837 74.3799 201.281 74.5568 202.751 76.7639L203.095 77.2812L202.6 77.6551C201.892 78.1891 200.6 79.1634 200.6 81.0931C200.6 83.3787 202.063 84.2577 202.766 84.6804C203.076 84.867 203.397 85.0594 203.397 85.4802C203.397 85.755 201.204 91.6549 198.019 91.6549C197.24 91.6549 196.689 91.4207 196.204 91.2141C195.712 91.005 195.288 90.8248 194.587 90.8248C194.232 90.8248 193.783 90.9928 193.307 91.171C192.658 91.4135 191.922 91.689 191.087 91.689H191.066Z" fill="white"/>
<path d="M198.361 69.1987C198.444 72.1891 196.306 74.2637 194.17 74.1336C193.818 71.7472 196.305 69.1987 198.361 69.1987Z" fill="white"/>
<path d="M215.3 76.2271H216.776L214.769 70.3233H213.048L211.041 76.2271H212.517L212.812 75.2994H215.005L215.3 76.2271ZM213.217 74.0343L213.909 71.8668L214.6 74.0343H213.217Z" fill="white"/>
<path d="M219.763 72.0101L218.886 74.6837L218.009 72.0101H216.609L218.169 76.2271H219.603L221.163 72.0101H219.763Z" fill="white"/>
<path d="M224.524 72.0101V72.4065C224.246 72.086 223.833 71.8921 223.268 71.8921C222.163 71.8921 221.252 72.862 221.252 74.1186C221.252 75.3753 222.163 76.3452 223.268 76.3452C223.833 76.3452 224.246 76.1512 224.524 75.8307V76.2271H225.789V72.0101H224.524ZM223.521 75.1476C222.939 75.1476 222.517 74.7512 222.517 74.1186C222.517 73.4861 222.939 73.0897 223.521 73.0897C224.102 73.0897 224.524 73.4861 224.524 74.1186C224.524 74.7512 224.102 75.1476 223.521 75.1476Z" fill="white"/>
<path d="M226.717 76.2271H227.983V70.0703H226.717V76.2271Z" fill="white"/>
<path d="M229.541 71.639C229.954 71.639 230.3 71.2932 230.3 70.88C230.3 70.4667 229.954 70.1209 229.541 70.1209C229.128 70.1209 228.782 70.4667 228.782 70.88C228.782 71.2932 229.128 71.639 229.541 71.639ZM228.908 76.2271H230.173V72.0101H228.908V76.2271Z" fill="white"/>
<path d="M233.621 71.8921C233.056 71.8921 232.643 72.086 232.364 72.4065V70.3233H231.099V76.2271H232.364V75.8307C232.643 76.1512 233.056 76.3452 233.621 76.3452C234.726 76.3452 235.637 75.3753 235.637 74.1186C235.637 72.862 234.726 71.8921 233.621 71.8921ZM233.368 75.1476C232.786 75.1476 232.364 74.7512 232.364 74.1186C232.364 73.4861 232.786 73.0897 233.368 73.0897C233.95 73.0897 234.372 73.4861 234.372 74.1186C234.372 74.7512 233.95 75.1476 233.368 75.1476Z" fill="white"/>
<path d="M236.354 76.2271H237.619V70.0703H236.354V76.2271Z" fill="white"/>
<path d="M239.675 74.6247H242.669C242.703 74.4644 242.72 74.2957 242.72 74.1186C242.72 72.8451 241.809 71.8921 240.577 71.8921C239.245 71.8921 238.334 72.862 238.334 74.1186C238.334 75.3753 239.228 76.3452 240.67 76.3452C241.471 76.3452 242.095 76.05 242.509 75.4765L241.497 74.8946C241.328 75.0801 241.033 75.215 240.687 75.215C240.223 75.215 239.835 75.0632 239.675 74.6247ZM239.65 73.6801C239.768 73.2499 240.088 73.0138 240.569 73.0138C240.948 73.0138 241.328 73.1909 241.463 73.6801H239.65Z" fill="white"/>
<path d="M247.57 76.3452C248.81 76.3452 249.805 75.3753 249.805 74.1186C249.805 72.862 248.81 71.8921 247.57 71.8921C246.33 71.8921 245.335 72.862 245.335 74.1186C245.335 75.3753 246.33 76.3452 247.57 76.3452ZM247.57 75.1138C247.022 75.1138 246.6 74.7174 246.6 74.1186C246.6 73.5198 247.022 73.1234 247.57 73.1234C248.118 73.1234 248.54 73.5198 248.54 74.1186C248.54 74.7174 248.118 75.1138 247.57 75.1138Z" fill="white"/>
<path d="M252.992 71.8921C252.435 71.8921 252.013 72.0945 251.785 72.4065V72.0101H250.52V76.2271H251.785V73.9246C251.785 73.3258 252.106 73.0559 252.57 73.0559C252.975 73.0559 253.304 73.3005 253.304 73.8234V76.2271H254.569V73.6379C254.569 72.4993 253.843 71.8921 252.992 71.8921Z" fill="white"/>
<path d="M260.017 73.2246V72.0101H259.148V70.8294L257.883 71.2089V72.0101H257.209V73.2246H257.883V74.7174C257.883 75.8982 258.364 76.3958 260.017 76.2271V75.0801C259.46 75.1138 259.148 75.0801 259.148 74.7174V73.2246H260.017Z" fill="white"/>
<path d="M263.205 71.8921C262.648 71.8921 262.226 72.0945 261.998 72.4065V70.3233H260.733V76.2271H261.998V73.9246C261.998 73.3258 262.319 73.0559 262.783 73.0559C263.188 73.0559 263.517 73.3005 263.517 73.8234V76.2271H264.782V73.6379C264.782 72.4993 264.056 71.8921 263.205 71.8921Z" fill="white"/>
<path d="M266.781 74.6247H269.775C269.808 74.4644 269.825 74.2957 269.825 74.1186C269.825 72.8451 268.914 71.8921 267.683 71.8921C266.35 71.8921 265.44 72.862 265.44 74.1186C265.44 75.3753 266.334 76.3452 267.776 76.3452C268.577 76.3452 269.201 76.05 269.614 75.4765L268.602 74.8946C268.434 75.0801 268.138 75.215 267.793 75.215C267.329 75.215 266.941 75.0632 266.781 74.6247ZM266.755 73.6801C266.873 73.2499 267.194 73.0138 267.675 73.0138C268.054 73.0138 268.434 73.1909 268.569 73.6801H266.755Z" fill="white"/>
<path d="M218.14 91.6894H220.6L217.254 81.8498H214.387L211.041 91.6894H213.501L213.993 90.1432H217.648L218.14 91.6894ZM214.668 88.0347L215.82 84.4221L216.973 88.0347H214.668Z" fill="white"/>
<path d="M225.571 84.4643C224.629 84.4643 223.941 84.7876 223.477 85.3218V84.6611H221.368V94.5007H223.477V91.0288C223.941 91.5629 224.629 91.8862 225.571 91.8862C227.413 91.8862 228.931 90.2697 228.931 88.1753C228.931 86.0808 227.413 84.4643 225.571 84.4643ZM225.15 89.8902C224.18 89.8902 223.477 89.2295 223.477 88.1753C223.477 87.121 224.18 86.4604 225.15 86.4604C226.119 86.4604 226.822 87.121 226.822 88.1753C226.822 89.2295 226.119 89.8902 225.15 89.8902Z" fill="white"/>
<path d="M234.329 84.4643C233.387 84.4643 232.699 84.7876 232.235 85.3218V84.6611H230.126V94.5007H232.235V91.0288C232.699 91.5629 233.387 91.8862 234.329 91.8862C236.171 91.8862 237.689 90.2697 237.689 88.1753C237.689 86.0808 236.171 84.4643 234.329 84.4643ZM233.907 89.8902C232.938 89.8902 232.235 89.2295 232.235 88.1753C232.235 87.121 232.938 86.4604 233.907 86.4604C234.877 86.4604 235.58 87.121 235.58 88.1753C235.58 89.2295 234.877 89.8902 233.907 89.8902Z" fill="white"/>
<path d="M238.884 91.6894H240.993V81.4281H238.884V91.6894Z" fill="white"/>
<path d="M244.419 89.0187H249.409C249.466 88.7516 249.494 88.4705 249.494 88.1753C249.494 86.0527 247.976 84.4643 245.923 84.4643C243.702 84.4643 242.184 86.0808 242.184 88.1753C242.184 90.2697 243.674 91.8862 246.078 91.8862C247.413 91.8862 248.453 91.3942 249.142 90.4384L247.455 89.4685C247.174 89.7777 246.682 90.0026 246.106 90.0026C245.333 90.0026 244.686 89.7496 244.419 89.0187ZM244.377 87.4443C244.574 86.7274 245.108 86.3338 245.909 86.3338C246.542 86.3338 247.174 86.629 247.399 87.4443H244.377Z" fill="white"/>
<path d="M257.718 91.8862C259.855 91.8862 261.373 90.7617 261.373 88.864C261.373 86.7837 259.7 86.2636 258.21 85.8137C256.678 85.3499 256.439 85.0406 256.439 84.5908C256.439 84.1972 256.79 83.8458 257.493 83.8458C258.393 83.8458 258.856 84.2816 259.194 84.9844L261.091 83.8739C260.375 82.4261 259.11 81.653 257.493 81.653C255.792 81.653 254.19 82.7494 254.19 84.647C254.19 86.5306 255.623 87.2335 257.085 87.6411C258.561 88.0488 259.124 88.2877 259.124 88.8922C259.124 89.2717 258.856 89.6934 257.788 89.6934C256.678 89.6934 256.073 89.1452 255.722 88.3299L253.782 89.4544C254.33 90.9022 255.652 91.8862 257.718 91.8862Z" fill="white"/>
<path d="M266.339 86.6853V84.6611H264.891V82.6932L262.783 83.3257V84.6611H261.658V86.6853H262.783V89.1733C262.783 91.1412 263.584 91.9706 266.339 91.6894V89.7777C265.411 89.8339 264.891 89.7777 264.891 89.1733V86.6853H266.339Z" fill="white"/>
<path d="M270.769 91.8862C272.835 91.8862 274.494 90.2697 274.494 88.1753C274.494 86.0808 272.835 84.4643 270.769 84.4643C268.703 84.4643 267.044 86.0808 267.044 88.1753C267.044 90.2697 268.703 91.8862 270.769 91.8862ZM270.769 89.8339C269.855 89.8339 269.153 89.1733 269.153 88.1753C269.153 87.1772 269.855 86.5166 270.769 86.5166C271.683 86.5166 272.386 87.1772 272.386 88.1753C272.386 89.1733 271.683 89.8339 270.769 89.8339Z" fill="white"/>
<path d="M277.795 85.9121V84.6611H275.687V91.6894H277.795V88.5126C277.795 87.121 279.032 86.7696 279.904 86.9102V84.5205C279.018 84.5205 278.076 84.9703 277.795 85.9121Z" fill="white"/>
<path d="M282.567 89.0187H287.557C287.613 88.7516 287.642 88.4705 287.642 88.1753C287.642 86.0527 286.123 84.4643 284.071 84.4643C281.85 84.4643 280.332 86.0808 280.332 88.1753C280.332 90.2697 281.822 91.8862 284.226 91.8862C285.561 91.8862 286.601 91.3942 287.29 90.4384L285.603 89.4685C285.322 89.7777 284.83 90.0026 284.254 90.0026C283.481 90.0026 282.834 89.7496 282.567 89.0187ZM282.525 87.4443C282.722 86.7274 283.256 86.3338 284.057 86.3338C284.69 86.3338 285.322 86.629 285.547 87.4443H282.525Z" fill="white"/>
<defs>
<clipPath id="clip0_19_390">
<rect width="28.1133" height="28.1133" fill="white" transform="translate(24.0878 67.793)"/>
</clipPath>
</defs>
</svg>
