<svg width="667" height="216" viewBox="0 0 667 216" fill="none" xmlns="http://www.w3.org/2000/svg">
<path d="M8.89685 8.95801C8.28845 8.95801 7.74841 9.07764 7.27673 9.31689C6.81189 9.54932 6.41882 9.8877 6.09753 10.332C5.78308 10.7764 5.54382 11.313 5.37976 11.9419C5.2157 12.5708 5.13367 13.2783 5.13367 14.0645C5.13367 15.124 5.26355 16.0298 5.52332 16.7817C5.78992 17.5269 6.20007 18.0977 6.75378 18.4941C7.3075 18.8838 8.02185 19.0786 8.89685 19.0786C9.50525 19.0786 10.1136 19.0103 10.722 18.8735C11.3373 18.7368 12.0038 18.542 12.7216 18.2891V20.9551C12.0585 21.2285 11.4056 21.4233 10.7631 21.5396C10.1205 21.6626 9.39929 21.7241 8.59949 21.7241C7.05457 21.7241 5.78308 21.4062 4.78503 20.7705C3.79382 20.1279 3.05896 19.2324 2.58044 18.084C2.10193 16.9287 1.86267 15.582 1.86267 14.0439C1.86267 12.9092 2.01648 11.8701 2.3241 10.9268C2.63171 9.9834 3.08289 9.1665 3.67761 8.47607C4.27234 7.78564 5.0072 7.25244 5.8822 6.87646C6.7572 6.50049 7.76208 6.3125 8.89685 6.3125C9.64197 6.3125 10.3871 6.4082 11.1322 6.59961C11.8842 6.78418 12.6019 7.04053 13.2855 7.36865L12.2601 9.95264C11.6996 9.68604 11.1356 9.45361 10.5682 9.25537C10.0009 9.05713 9.44373 8.95801 8.89685 8.95801ZM26.0927 15.7666C26.0927 16.7236 25.9628 17.5713 25.703 18.3096C25.4501 19.0479 25.0775 19.6733 24.5853 20.186C24.1 20.6919 23.5121 21.0747 22.8217 21.3345C22.1381 21.5942 21.3656 21.7241 20.5043 21.7241C19.6976 21.7241 18.9559 21.5942 18.2792 21.3345C17.6093 21.0747 17.0248 20.6919 16.5258 20.186C16.0336 19.6733 15.6508 19.0479 15.3773 18.3096C15.1107 17.5713 14.9774 16.7236 14.9774 15.7666C14.9774 14.4951 15.203 13.4185 15.6542 12.5366C16.1053 11.6548 16.7479 10.9849 17.5819 10.5269C18.4159 10.0688 19.4105 9.83984 20.5658 9.83984C21.639 9.83984 22.5892 10.0688 23.4164 10.5269C24.2504 10.9849 24.9032 11.6548 25.3749 12.5366C25.8534 13.4185 26.0927 14.4951 26.0927 15.7666ZM18.1664 15.7666C18.1664 16.5186 18.2484 17.1509 18.4125 17.6636C18.5765 18.1763 18.8329 18.5625 19.1815 18.8223C19.5302 19.082 19.9847 19.2119 20.5453 19.2119C21.099 19.2119 21.5468 19.082 21.8885 18.8223C22.2372 18.5625 22.4901 18.1763 22.6473 17.6636C22.8114 17.1509 22.8934 16.5186 22.8934 15.7666C22.8934 15.0078 22.8114 14.3789 22.6473 13.8799C22.4901 13.374 22.2372 12.9946 21.8885 12.7417C21.5399 12.4888 21.0853 12.3623 20.5248 12.3623C19.6976 12.3623 19.0961 12.646 18.7201 13.2134C18.351 13.7808 18.1664 14.6318 18.1664 15.7666ZM42.14 9.83984C43.4388 9.83984 44.4198 10.1748 45.0829 10.8447C45.7528 11.5078 46.0878 12.5742 46.0878 14.0439V21.519H42.9501V14.8232C42.9501 14.0029 42.8099 13.3843 42.5297 12.9673C42.2494 12.5503 41.8153 12.3418 41.2274 12.3418C40.4003 12.3418 39.8124 12.6392 39.4637 13.2339C39.1151 13.8218 38.9408 14.666 38.9408 15.7666V21.519H35.8134V14.8232C35.8134 14.2764 35.7518 13.8184 35.6288 13.4492C35.5057 13.0801 35.3177 12.8032 35.0648 12.6187C34.8119 12.4341 34.4872 12.3418 34.0907 12.3418C33.5096 12.3418 33.0516 12.4888 32.7167 12.7827C32.3885 13.0698 32.1527 13.4971 32.0092 14.0645C31.8724 14.625 31.8041 15.312 31.8041 16.1255V21.519H28.6766V10.0552H31.0658L31.4862 11.5215H31.6605C31.8929 11.125 32.1835 10.8037 32.5321 10.5576C32.8876 10.3115 33.2772 10.1304 33.701 10.0142C34.1249 9.89795 34.5555 9.83984 34.993 9.83984C35.8339 9.83984 36.5448 9.97656 37.1259 10.25C37.7137 10.5234 38.1649 10.9473 38.4794 11.5215H38.7562C39.098 10.9336 39.58 10.5063 40.202 10.2397C40.8309 9.97314 41.4769 9.83984 42.14 9.83984ZM55.6854 9.83984C56.9774 9.83984 58.0199 10.3423 58.8129 11.3472C59.6127 12.3521 60.0126 13.8252 60.0126 15.7666C60.0126 17.0654 59.8246 18.1592 59.4486 19.0479C59.0726 19.9297 58.5531 20.5962 57.89 21.0474C57.2269 21.4985 56.4647 21.7241 55.6034 21.7241C55.0497 21.7241 54.5746 21.6558 54.1781 21.519C53.7816 21.3755 53.4432 21.1943 53.163 20.9756C52.8827 20.75 52.64 20.5107 52.4349 20.2578H52.2709C52.3256 20.5312 52.3666 20.8115 52.3939 21.0986C52.4213 21.3857 52.4349 21.666 52.4349 21.9395V26.564H49.3075V10.0552H51.8505L52.2914 11.542H52.4349C52.64 11.2344 52.8895 10.9507 53.1835 10.6909C53.4774 10.4312 53.8295 10.2261 54.2396 10.0757C54.6566 9.91846 55.1385 9.83984 55.6854 9.83984ZM54.6805 12.3418C54.1337 12.3418 53.6996 12.4546 53.3783 12.6802C53.057 12.9058 52.8212 13.2441 52.6708 13.6953C52.5272 14.1465 52.4486 14.7173 52.4349 15.4077V15.7461C52.4349 16.4844 52.5033 17.1099 52.64 17.6226C52.7836 18.1353 53.0194 18.5249 53.3475 18.7915C53.6825 19.0581 54.1405 19.1914 54.7216 19.1914C55.2001 19.1914 55.5931 19.0581 55.9008 18.7915C56.2084 18.5249 56.4374 18.1353 56.5878 17.6226C56.745 17.103 56.8236 16.4707 56.8236 15.7256C56.8236 14.6045 56.6493 13.7603 56.3007 13.1929C55.952 12.6255 55.412 12.3418 54.6805 12.3418ZM67.2928 9.81934C68.8309 9.81934 70.0101 10.1543 70.8304 10.8242C71.6508 11.4941 72.0609 12.5127 72.0609 13.8799V21.519H69.8768L69.2719 19.9604H69.1898C68.8617 20.3706 68.5267 20.7056 68.1849 20.9653C67.8431 21.2251 67.4501 21.4165 67.0057 21.5396C66.5614 21.6626 66.0214 21.7241 65.3856 21.7241C64.7089 21.7241 64.1005 21.5942 63.5604 21.3345C63.0272 21.0747 62.6068 20.6782 62.2992 20.145C61.9916 19.605 61.8378 18.9214 61.8378 18.0942C61.8378 16.8774 62.265 15.9819 63.1195 15.4077C63.974 14.8267 65.2557 14.5054 66.9647 14.4438L68.954 14.3823V13.8799C68.954 13.2783 68.7968 12.8374 68.4823 12.5571C68.1678 12.2769 67.7303 12.1367 67.1698 12.1367C66.6161 12.1367 66.0726 12.2153 65.5394 12.3726C65.0062 12.5298 64.473 12.728 63.9398 12.9673L62.9042 10.855C63.5126 10.5337 64.1927 10.2808 64.9447 10.0962C65.7035 9.91162 66.4862 9.81934 67.2928 9.81934ZM68.954 16.2075L67.744 16.2485C66.7323 16.2759 66.0282 16.457 65.6317 16.792C65.2421 17.127 65.0472 17.5679 65.0472 18.1147C65.0472 18.5933 65.1874 18.9351 65.4677 19.1401C65.7479 19.3384 66.1136 19.4375 66.5648 19.4375C67.2347 19.4375 67.7987 19.2393 68.2567 18.8428C68.7216 18.4463 68.954 17.8823 68.954 17.1509V16.2075ZM81.8021 9.83984C83.0258 9.83984 84.0101 10.1748 84.7552 10.8447C85.5004 11.5078 85.8729 12.5742 85.8729 14.0439V21.519H82.7455V14.8232C82.7455 14.0029 82.5951 13.3843 82.2943 12.9673C82.0004 12.5503 81.5355 12.3418 80.8998 12.3418C79.9427 12.3418 79.2899 12.6665 78.9413 13.3159C78.5927 13.9653 78.4183 14.9019 78.4183 16.1255V21.519H75.2909V10.0552H77.6801L78.1005 11.5215H78.2748C78.5209 11.125 78.8251 10.8037 79.1874 10.5576C79.5565 10.3115 79.9633 10.1304 80.4076 10.0142C80.8588 9.89795 81.3236 9.83984 81.8021 9.83984ZM87.452 10.0552H90.8768L93.0404 16.5049C93.1088 16.71 93.1669 16.9185 93.2147 17.1304C93.2626 17.3423 93.3036 17.561 93.3378 17.7866C93.3719 18.0122 93.3993 18.248 93.4198 18.4941H93.4813C93.5223 18.125 93.577 17.7798 93.6454 17.4585C93.7206 17.1372 93.8129 16.8193 93.9222 16.5049L96.0448 10.0552H99.3978L94.5477 22.9854C94.2538 23.7783 93.871 24.438 93.3993 24.9644C92.9276 25.4976 92.3842 25.8975 91.7689 26.1641C91.1605 26.4307 90.4906 26.564 89.7592 26.564C89.4037 26.564 89.0961 26.5435 88.8363 26.5024C88.5765 26.4683 88.3544 26.4307 88.1698 26.3896V23.9082C88.3134 23.9424 88.4945 23.9731 88.7133 24.0005C88.932 24.0278 89.161 24.0415 89.4003 24.0415C89.8378 24.0415 90.2137 23.9492 90.5282 23.7646C90.8427 23.5801 91.1058 23.3306 91.3177 23.0161C91.5297 22.7085 91.6971 22.3701 91.8202 22.001L92.0048 21.437L87.452 10.0552Z" fill="#080809"/>
<path d="M10.4598 102.859L8.87781 98.7808H3.72742L2.15417 102.859H0.642456L5.6698 89.9565H7.01453L12.0067 102.859H10.4598ZM8.42957 97.4536L6.92664 93.4019C6.89148 93.2964 6.83289 93.1235 6.75085 92.8833C6.67468 92.6431 6.59558 92.394 6.51355 92.1362C6.43152 91.8784 6.36414 91.6704 6.3114 91.5122C6.25281 91.7524 6.18835 91.9927 6.11804 92.2329C6.05359 92.4673 5.98914 92.687 5.92468 92.8921C5.86023 93.0913 5.80457 93.2612 5.75769 93.4019L4.22839 97.4536H8.42957ZM15.0302 89.1831V92.6021C15.0302 92.9946 15.0184 93.3755 14.995 93.7446C14.9774 94.1138 14.9628 94.4009 14.951 94.606H15.0302C15.2938 94.1724 15.6747 93.8062 16.1727 93.5073C16.6708 93.2085 17.3065 93.0591 18.08 93.0591C19.287 93.0591 20.2479 93.478 20.9628 94.3159C21.6835 95.1479 22.0438 96.3872 22.0438 98.0337C22.0438 99.1177 21.8798 100.032 21.5516 100.776C21.2235 101.52 20.7606 102.083 20.163 102.463C19.5653 102.844 18.8593 103.035 18.0448 103.035C17.2831 103.035 16.6561 102.894 16.1639 102.613C15.6776 102.326 15.3026 101.977 15.0389 101.567H14.9247L14.6259 102.859H13.5712V89.1831H15.0302ZM17.8427 94.2808C17.1454 94.2808 16.5917 94.4185 16.1815 94.6938C15.7714 94.9634 15.4755 95.3735 15.2938 95.9243C15.118 96.4692 15.0302 97.1606 15.0302 97.9985V98.0776C15.0302 99.2905 15.2323 100.219 15.6366 100.864C16.0409 101.502 16.7762 101.822 17.8427 101.822C18.7391 101.822 19.41 101.494 19.8553 100.837C20.3065 100.181 20.5321 99.2437 20.5321 98.0249C20.5321 96.7827 20.3094 95.8481 19.8641 95.2212C19.4247 94.5942 18.7509 94.2808 17.8427 94.2808ZM32.8983 98.0249C32.8983 98.8159 32.7958 99.522 32.5907 100.143C32.3856 100.764 32.0897 101.289 31.703 101.716C31.3163 102.144 30.8475 102.472 30.2968 102.701C29.7518 102.923 29.1337 103.035 28.4423 103.035C27.7977 103.035 27.2059 102.923 26.6669 102.701C26.1337 102.472 25.6708 102.144 25.2782 101.716C24.8915 101.289 24.5897 100.764 24.3729 100.143C24.162 99.522 24.0565 98.8159 24.0565 98.0249C24.0565 96.9702 24.2352 96.0737 24.5927 95.3354C24.9501 94.5913 25.4598 94.0259 26.1219 93.6392C26.7899 93.2466 27.5839 93.0503 28.5038 93.0503C29.3827 93.0503 30.1503 93.2466 30.8065 93.6392C31.4686 94.0317 31.9813 94.6001 32.3446 95.3442C32.7137 96.0825 32.8983 96.9761 32.8983 98.0249ZM25.5682 98.0249C25.5682 98.7983 25.6708 99.4692 25.8759 100.038C26.0809 100.606 26.3973 101.045 26.8251 101.356C27.2528 101.667 27.8036 101.822 28.4774 101.822C29.1454 101.822 29.6932 101.667 30.121 101.356C30.5546 101.045 30.8739 100.606 31.079 100.038C31.2841 99.4692 31.3866 98.7983 31.3866 98.0249C31.3866 97.2573 31.2841 96.5952 31.079 96.0386C30.8739 95.4761 30.5575 95.0425 30.1298 94.7378C29.702 94.4331 29.1483 94.2808 28.4686 94.2808C27.4667 94.2808 26.7313 94.6118 26.2626 95.2739C25.7997 95.936 25.5682 96.853 25.5682 98.0249ZM43.3749 93.2261V102.859H42.1796L41.9686 101.505H41.8895C41.6903 101.839 41.4325 102.121 41.1161 102.349C40.7997 102.578 40.4423 102.748 40.0438 102.859C39.6512 102.976 39.2323 103.035 38.787 103.035C38.0253 103.035 37.3866 102.912 36.871 102.666C36.3553 102.419 35.9657 102.039 35.702 101.523C35.4442 101.007 35.3153 100.345 35.3153 99.5366V93.2261H36.7919V99.4312C36.7919 100.234 36.9735 100.834 37.3368 101.233C37.7001 101.625 38.2538 101.822 38.9979 101.822C39.7128 101.822 40.2811 101.687 40.703 101.417C41.1307 101.148 41.4384 100.752 41.6259 100.231C41.8134 99.7036 41.9071 99.0591 41.9071 98.2974V93.2261H43.3749ZM49.5712 101.839C49.8114 101.839 50.0575 101.819 50.3094 101.778C50.5614 101.737 50.7665 101.687 50.9247 101.628V102.762C50.7548 102.838 50.5175 102.903 50.2128 102.956C49.9139 103.008 49.621 103.035 49.3339 103.035C48.8241 103.035 48.3612 102.947 47.9452 102.771C47.5292 102.589 47.1952 102.285 46.9432 101.857C46.6971 101.429 46.5741 100.837 46.5741 100.082V94.3687H45.203V93.6567L46.5829 93.0854L47.163 90.9937H48.0419V93.2261H50.8632V94.3687H48.0419V100.038C48.0419 100.641 48.1796 101.092 48.455 101.391C48.7362 101.69 49.1083 101.839 49.5712 101.839Z" fill="#5E6282"/>
<path d="M7.89343 138.936C7.18445 138.936 6.54578 139.059 5.97742 139.305C5.41492 139.545 4.93445 139.896 4.53601 140.359C4.14343 140.816 3.84167 141.37 3.63074 142.021C3.4198 142.671 3.31433 143.403 3.31433 144.218C3.31433 145.296 3.48132 146.233 3.81531 147.03C4.15515 147.821 4.65906 148.434 5.32703 148.867C6.00085 149.301 6.84167 149.518 7.84949 149.518C8.42371 149.518 8.96277 149.471 9.46667 149.377C9.97644 149.277 10.4716 149.154 10.952 149.008V150.309C10.4833 150.484 9.99109 150.613 9.47546 150.695C8.95984 150.783 8.34753 150.827 7.63855 150.827C6.33191 150.827 5.23914 150.558 4.36023 150.019C3.48718 149.474 2.83093 148.706 2.39148 147.716C1.95789 146.726 1.74109 145.557 1.74109 144.209C1.74109 143.236 1.87585 142.349 2.14539 141.546C2.42078 140.737 2.81921 140.04 3.3407 139.454C3.86804 138.868 4.51257 138.417 5.27429 138.101C6.04187 137.778 6.92078 137.617 7.91101 137.617C8.5614 137.617 9.18835 137.682 9.79187 137.811C10.3954 137.939 10.9403 138.124 11.4266 138.364L10.829 139.63C10.4188 139.442 9.96765 139.281 9.47546 139.146C8.98914 139.006 8.46179 138.936 7.89343 138.936ZM17.1219 140.86C18.2704 140.86 19.1229 141.118 19.6796 141.634C20.2362 142.149 20.5145 142.973 20.5145 144.104V150.651H19.451L19.1698 149.228H19.0995C18.83 149.579 18.5487 149.875 18.2557 150.115C17.9628 150.35 17.6229 150.528 17.2362 150.651C16.8553 150.769 16.3866 150.827 15.83 150.827C15.244 150.827 14.7225 150.725 14.2655 150.52C13.8143 150.314 13.4569 150.004 13.1932 149.588C12.9354 149.172 12.8065 148.645 12.8065 148.006C12.8065 147.045 13.1874 146.307 13.9491 145.791C14.7108 145.275 15.871 144.994 17.4296 144.947L19.0907 144.877V144.288C19.0907 143.456 18.912 142.873 18.5546 142.539C18.1971 142.205 17.6932 142.038 17.0428 142.038C16.5389 142.038 16.0585 142.111 15.6014 142.258C15.1444 142.404 14.7108 142.577 14.3007 142.776L13.8524 141.669C14.286 141.446 14.7841 141.256 15.3466 141.098C15.9091 140.939 16.5009 140.86 17.1219 140.86ZM19.0731 145.905L17.6053 145.967C16.4042 146.014 15.5575 146.21 15.0653 146.556C14.5731 146.901 14.327 147.391 14.327 148.023C14.327 148.574 14.494 148.981 14.828 149.245C15.162 149.509 15.6044 149.641 16.1552 149.641C17.0106 149.641 17.7108 149.403 18.2557 148.929C18.8007 148.454 19.0731 147.742 19.0731 146.793V145.905ZM27.8973 140.843C28.0907 140.843 28.2928 140.854 28.5038 140.878C28.7147 140.896 28.9022 140.922 29.0663 140.957L28.8817 142.311C28.7235 142.27 28.5477 142.237 28.3544 142.214C28.161 142.19 27.9794 142.179 27.8094 142.179C27.4227 142.179 27.0565 142.258 26.7108 142.416C26.371 142.568 26.0721 142.791 25.8143 143.084C25.5565 143.371 25.3544 143.72 25.2079 144.13C25.0614 144.534 24.9882 144.985 24.9882 145.483V150.651H23.5204V141.019H24.7333L24.8915 142.794H24.953C25.1522 142.437 25.3925 142.111 25.6737 141.818C25.955 141.52 26.2802 141.282 26.6493 141.106C27.0243 140.931 27.4403 140.843 27.8973 140.843ZM34.5946 140.843C35.4149 140.843 36.118 141.024 36.704 141.388C37.2899 141.751 37.7382 142.261 38.0487 142.917C38.3593 143.567 38.5145 144.329 38.5145 145.202V146.107H31.8612C31.8788 147.238 32.16 148.1 32.705 148.691C33.2499 149.283 34.0175 149.579 35.0077 149.579C35.6171 149.579 36.1561 149.523 36.6249 149.412C37.0936 149.301 37.58 149.137 38.0839 148.92V150.203C37.5975 150.42 37.1141 150.578 36.6337 150.678C36.1591 150.777 35.5966 150.827 34.9462 150.827C34.0204 150.827 33.2118 150.64 32.5204 150.265C31.8348 149.884 31.3016 149.327 30.9208 148.595C30.5399 147.862 30.3495 146.966 30.3495 145.905C30.3495 144.868 30.5223 143.972 30.868 143.216C31.2196 142.454 31.7118 141.868 32.3446 141.458C32.9833 141.048 33.7333 140.843 34.5946 140.843ZM34.577 142.038C33.7977 142.038 33.1766 142.293 32.7137 142.803C32.2509 143.312 31.9755 144.024 31.8876 144.938H36.9852C36.9794 144.364 36.8885 143.86 36.7128 143.427C36.5428 142.987 36.2821 142.647 35.9305 142.407C35.579 142.161 35.1278 142.038 34.577 142.038ZM44.702 140.843C45.5223 140.843 46.2255 141.024 46.8114 141.388C47.3973 141.751 47.8456 142.261 48.1561 142.917C48.4667 143.567 48.6219 144.329 48.6219 145.202V146.107H41.9686C41.9862 147.238 42.2675 148.1 42.8124 148.691C43.3573 149.283 44.1249 149.579 45.1151 149.579C45.7245 149.579 46.2635 149.523 46.7323 149.412C47.201 149.301 47.6874 149.137 48.1913 148.92V150.203C47.705 150.42 47.2216 150.578 46.7411 150.678C46.2665 150.777 45.704 150.827 45.0536 150.827C44.1278 150.827 43.3192 150.64 42.6278 150.265C41.9423 149.884 41.4091 149.327 41.0282 148.595C40.6473 147.862 40.4569 146.966 40.4569 145.905C40.4569 144.868 40.6298 143.972 40.9755 143.216C41.327 142.454 41.8192 141.868 42.452 141.458C43.0907 141.048 43.8407 140.843 44.702 140.843ZM44.6844 142.038C43.9052 142.038 43.2841 142.293 42.8212 142.803C42.3583 143.312 42.0829 144.024 41.995 144.938H47.0927C47.0868 144.364 46.996 143.86 46.8202 143.427C46.6503 142.987 46.3895 142.647 46.038 142.407C45.6864 142.161 45.2352 142.038 44.6844 142.038ZM55.4774 140.843C55.6708 140.843 55.8729 140.854 56.0839 140.878C56.2948 140.896 56.4823 140.922 56.6464 140.957L56.4618 142.311C56.3036 142.27 56.1278 142.237 55.9344 142.214C55.7411 142.19 55.5594 142.179 55.3895 142.179C55.0028 142.179 54.6366 142.258 54.2909 142.416C53.951 142.568 53.6522 142.791 53.3944 143.084C53.1366 143.371 52.9344 143.72 52.788 144.13C52.6415 144.534 52.5682 144.985 52.5682 145.483V150.651H51.1005V141.019H52.3134L52.4716 142.794H52.5331C52.7323 142.437 52.9725 142.111 53.2538 141.818C53.535 141.52 53.8602 141.282 54.2294 141.106C54.6044 140.931 55.0204 140.843 55.4774 140.843ZM64.6971 148.015C64.6971 148.63 64.5419 149.148 64.2313 149.57C63.9266 149.986 63.4872 150.3 62.913 150.511C62.3446 150.722 61.6649 150.827 60.8739 150.827C60.2001 150.827 59.6171 150.774 59.1249 150.669C58.6327 150.563 58.202 150.414 57.8329 150.221V148.876C58.2255 149.069 58.6942 149.245 59.2391 149.403C59.7841 149.562 60.3407 149.641 60.9091 149.641C61.7411 149.641 62.3446 149.506 62.7196 149.236C63.0946 148.967 63.2821 148.601 63.2821 148.138C63.2821 147.874 63.2059 147.643 63.0536 147.443C62.9071 147.238 62.6581 147.042 62.3065 146.854C61.955 146.661 61.4686 146.45 60.8475 146.222C60.2323 145.987 59.6991 145.756 59.2479 145.527C58.8026 145.293 58.4569 145.009 58.2108 144.675C57.9706 144.341 57.8505 143.907 57.8505 143.374C57.8505 142.56 58.1786 141.936 58.8348 141.502C59.4969 141.062 60.3641 140.843 61.4364 140.843C62.0165 140.843 62.5585 140.901 63.0624 141.019C63.5721 141.13 64.0468 141.282 64.4862 141.476L63.994 142.645C63.5956 142.475 63.1708 142.331 62.7196 142.214C62.2684 142.097 61.8085 142.038 61.3397 142.038C60.6659 142.038 60.1473 142.149 59.7841 142.372C59.4266 142.595 59.2479 142.899 59.2479 143.286C59.2479 143.585 59.33 143.831 59.494 144.024C59.6639 144.218 59.9335 144.399 60.3026 144.569C60.6718 144.739 61.1581 144.938 61.7616 145.167C62.3651 145.39 62.8866 145.621 63.326 145.861C63.7655 146.096 64.1024 146.383 64.3368 146.723C64.577 147.057 64.6971 147.487 64.6971 148.015Z" fill="#5E6282"/>
<path d="M8.05164 199.85L3.73621 188.477H3.66589C3.68933 188.717 3.70984 189.01 3.72742 189.355C3.745 189.701 3.75964 190.079 3.77136 190.489C3.78308 190.894 3.78894 191.307 3.78894 191.729V199.85H2.40027V187H4.61511L8.68445 197.688H8.74597L12.8768 187H15.0741V199.85H13.5975V191.623C13.5975 191.242 13.6034 190.861 13.6151 190.48C13.6268 190.094 13.6415 189.73 13.6591 189.391C13.6766 189.045 13.6942 188.746 13.7118 188.494H13.6415L9.27332 199.85H8.05164ZM26.6757 195.016C26.6757 195.807 26.5731 196.513 26.368 197.134C26.163 197.755 25.8671 198.279 25.4803 198.707C25.0936 199.135 24.6249 199.463 24.0741 199.691C23.5292 199.914 22.911 200.025 22.2196 200.025C21.5751 200.025 20.9833 199.914 20.4442 199.691C19.911 199.463 19.4481 199.135 19.0555 198.707C18.6688 198.279 18.3671 197.755 18.1503 197.134C17.9393 196.513 17.8339 195.807 17.8339 195.016C17.8339 193.961 18.0126 193.064 18.37 192.326C18.7274 191.582 19.2372 191.017 19.8993 190.63C20.5673 190.237 21.3612 190.041 22.2811 190.041C23.16 190.041 23.9276 190.237 24.5839 190.63C25.246 191.022 25.7587 191.591 26.1219 192.335C26.4911 193.073 26.6757 193.967 26.6757 195.016ZM19.3456 195.016C19.3456 195.789 19.4481 196.46 19.6532 197.028C19.8583 197.597 20.1747 198.036 20.6024 198.347C21.0302 198.657 21.5809 198.812 22.2548 198.812C22.9227 198.812 23.4706 198.657 23.8983 198.347C24.3319 198.036 24.6512 197.597 24.8563 197.028C25.0614 196.46 25.1639 195.789 25.1639 195.016C25.1639 194.248 25.0614 193.586 24.8563 193.029C24.6512 192.467 24.3348 192.033 23.9071 191.729C23.4794 191.424 22.9257 191.271 22.246 191.271C21.244 191.271 20.5087 191.603 20.0399 192.265C19.577 192.927 19.3456 193.844 19.3456 195.016ZM30.6571 186.174V189.593C30.6571 189.985 30.6454 190.366 30.6219 190.735C30.6044 191.104 30.5897 191.392 30.578 191.597H30.6571C30.9208 191.163 31.3016 190.797 31.7997 190.498C32.2977 190.199 32.9335 190.05 33.7069 190.05C34.9139 190.05 35.8749 190.469 36.5897 191.307C37.3104 192.139 37.6708 193.378 37.6708 195.024C37.6708 196.108 37.5067 197.022 37.1786 197.767C36.8505 198.511 36.3876 199.073 35.7899 199.454C35.1923 199.835 34.4862 200.025 33.6718 200.025C32.91 200.025 32.2831 199.885 31.7909 199.604C31.3046 199.316 30.9296 198.968 30.6659 198.558H30.5516L30.2528 199.85H29.1981V186.174H30.6571ZM33.4696 191.271C32.7723 191.271 32.2186 191.409 31.8085 191.685C31.3983 191.954 31.1024 192.364 30.9208 192.915C30.745 193.46 30.6571 194.151 30.6571 194.989V195.068C30.6571 196.281 30.8593 197.21 31.2635 197.854C31.6678 198.493 32.4032 198.812 33.4696 198.812C34.3661 198.812 35.037 198.484 35.4823 197.828C35.9335 197.172 36.1591 196.234 36.1591 195.016C36.1591 193.773 35.9364 192.839 35.4911 192.212C35.0516 191.585 34.3778 191.271 33.4696 191.271ZM41.6786 190.217V199.85H40.2196V190.217H41.6786ZM40.9667 186.613C41.2069 186.613 41.412 186.692 41.5819 186.851C41.7577 187.003 41.8456 187.243 41.8456 187.571C41.8456 187.894 41.7577 188.134 41.5819 188.292C41.412 188.45 41.2069 188.529 40.9667 188.529C40.7147 188.529 40.5038 188.45 40.3339 188.292C40.1698 188.134 40.0878 187.894 40.0878 187.571C40.0878 187.243 40.1698 187.003 40.3339 186.851C40.5038 186.692 40.7147 186.613 40.9667 186.613ZM46.2401 199.85H44.7723V186.174H46.2401V199.85ZM53.0341 190.041C53.8544 190.041 54.5575 190.223 55.1434 190.586C55.7294 190.949 56.1776 191.459 56.4882 192.115C56.7987 192.766 56.954 193.527 56.954 194.4V195.306H50.3007C50.3182 196.437 50.5995 197.298 51.1444 197.89C51.6893 198.481 52.4569 198.777 53.4471 198.777C54.0565 198.777 54.5956 198.722 55.0643 198.61C55.5331 198.499 56.0194 198.335 56.5233 198.118V199.401C56.037 199.618 55.5536 199.776 55.0731 199.876C54.5985 199.976 54.036 200.025 53.3856 200.025C52.4598 200.025 51.6512 199.838 50.9598 199.463C50.2743 199.082 49.7411 198.525 49.3602 197.793C48.9794 197.061 48.7889 196.164 48.7889 195.104C48.7889 194.066 48.9618 193.17 49.3075 192.414C49.6591 191.652 50.1512 191.066 50.7841 190.656C51.4227 190.246 52.1727 190.041 53.0341 190.041ZM53.0165 191.236C52.2372 191.236 51.6161 191.491 51.1532 192.001C50.6903 192.511 50.4149 193.223 50.327 194.137H55.4247C55.4188 193.562 55.328 193.059 55.1522 192.625C54.9823 192.186 54.7216 191.846 54.37 191.605C54.0184 191.359 53.5673 191.236 53.0165 191.236Z" fill="#5E6282"/>
<path d="M263.322 8.95801C262.714 8.95801 262.174 9.07764 261.702 9.31689C261.237 9.54932 260.844 9.8877 260.523 10.332C260.208 10.7764 259.969 11.313 259.805 11.9419C259.641 12.5708 259.559 13.2783 259.559 14.0645C259.559 15.124 259.689 16.0298 259.948 16.7817C260.215 17.5269 260.625 18.0977 261.179 18.4941C261.733 18.8838 262.447 19.0786 263.322 19.0786C263.93 19.0786 264.539 19.0103 265.147 18.8735C265.762 18.7368 266.429 18.542 267.147 18.2891V20.9551C266.484 21.2285 265.831 21.4233 265.188 21.5396C264.546 21.6626 263.824 21.7241 263.025 21.7241C261.48 21.7241 260.208 21.4062 259.21 20.7705C258.219 20.1279 257.484 19.2324 257.006 18.084C256.527 16.9287 256.288 15.582 256.288 14.0439C256.288 12.9092 256.442 11.8701 256.749 10.9268C257.057 9.9834 257.508 9.1665 258.103 8.47607C258.697 7.78564 259.432 7.25244 260.307 6.87646C261.182 6.50049 262.187 6.3125 263.322 6.3125C264.067 6.3125 264.812 6.4082 265.557 6.59961C266.309 6.78418 267.027 7.04053 267.711 7.36865L266.685 9.95264C266.125 9.68604 265.561 9.45361 264.993 9.25537C264.426 9.05713 263.869 8.95801 263.322 8.95801ZM280.518 15.7666C280.518 16.7236 280.388 17.5713 280.128 18.3096C279.875 19.0479 279.503 19.6733 279.01 20.186C278.525 20.6919 277.937 21.0747 277.247 21.3345C276.563 21.5942 275.791 21.7241 274.929 21.7241C274.123 21.7241 273.381 21.5942 272.704 21.3345C272.034 21.0747 271.45 20.6919 270.951 20.186C270.459 19.6733 270.076 19.0479 269.802 18.3096C269.536 17.5713 269.403 16.7236 269.403 15.7666C269.403 14.4951 269.628 13.4185 270.079 12.5366C270.53 11.6548 271.173 10.9849 272.007 10.5269C272.841 10.0688 273.836 9.83984 274.991 9.83984C276.064 9.83984 277.014 10.0688 277.842 10.5269C278.675 10.9849 279.328 11.6548 279.8 12.5366C280.279 13.4185 280.518 14.4951 280.518 15.7666ZM272.592 15.7666C272.592 16.5186 272.674 17.1509 272.838 17.6636C273.002 18.1763 273.258 18.5625 273.607 18.8223C273.955 19.082 274.41 19.2119 274.97 19.2119C275.524 19.2119 275.972 19.082 276.314 18.8223C276.662 18.5625 276.915 18.1763 277.072 17.6636C277.237 17.1509 277.319 16.5186 277.319 15.7666C277.319 15.0078 277.237 14.3789 277.072 13.8799C276.915 13.374 276.662 12.9946 276.314 12.7417C275.965 12.4888 275.51 12.3623 274.95 12.3623C274.123 12.3623 273.521 12.646 273.145 13.2134C272.776 13.7808 272.592 14.6318 272.592 15.7666ZM289.613 9.83984C290.837 9.83984 291.821 10.1748 292.566 10.8447C293.311 11.5078 293.684 12.5742 293.684 14.0439V21.519H290.556V14.8232C290.556 14.0029 290.406 13.3843 290.105 12.9673C289.811 12.5503 289.346 12.3418 288.711 12.3418C287.754 12.3418 287.101 12.6665 286.752 13.3159C286.404 13.9653 286.229 14.9019 286.229 16.1255V21.519H283.102V10.0552H285.491L285.911 11.5215H286.086C286.332 11.125 286.636 10.8037 286.998 10.5576C287.367 10.3115 287.774 10.1304 288.218 10.0142C288.67 9.89795 289.134 9.83984 289.613 9.83984ZM301.733 19.2324C302.075 19.2324 302.406 19.1982 302.728 19.1299C303.056 19.0615 303.381 18.9761 303.702 18.8735V21.2012C303.367 21.3516 302.95 21.4746 302.451 21.5703C301.959 21.6729 301.419 21.7241 300.831 21.7241C300.147 21.7241 299.532 21.6147 298.985 21.396C298.445 21.1704 298.018 20.7842 297.703 20.2373C297.396 19.6836 297.242 18.9146 297.242 17.9302V12.4033H295.745V11.0806L297.467 10.0347L298.37 7.61475H300.369V10.0552H303.579V12.4033H300.369V17.9302C300.369 18.3677 300.492 18.6958 300.738 18.9146C300.991 19.1265 301.323 19.2324 301.733 19.2324ZM310.726 9.81934C312.264 9.81934 313.443 10.1543 314.263 10.8242C315.084 11.4941 315.494 12.5127 315.494 13.8799V21.519H313.31L312.705 19.9604H312.623C312.295 20.3706 311.96 20.7056 311.618 20.9653C311.276 21.2251 310.883 21.4165 310.439 21.5396C309.994 21.6626 309.454 21.7241 308.819 21.7241C308.142 21.7241 307.533 21.5942 306.993 21.3345C306.46 21.0747 306.04 20.6782 305.732 20.145C305.425 19.605 305.271 18.9214 305.271 18.0942C305.271 16.8774 305.698 15.9819 306.552 15.4077C307.407 14.8267 308.689 14.5054 310.398 14.4438L312.387 14.3823V13.8799C312.387 13.2783 312.23 12.8374 311.915 12.5571C311.601 12.2769 311.163 12.1367 310.603 12.1367C310.049 12.1367 309.506 12.2153 308.972 12.3726C308.439 12.5298 307.906 12.728 307.373 12.9673L306.337 10.855C306.946 10.5337 307.626 10.2808 308.378 10.0962C309.136 9.91162 309.919 9.81934 310.726 9.81934ZM312.387 16.2075L311.177 16.2485C310.165 16.2759 309.461 16.457 309.065 16.792C308.675 17.127 308.48 17.5679 308.48 18.1147C308.48 18.5933 308.62 18.9351 308.901 19.1401C309.181 19.3384 309.547 19.4375 309.998 19.4375C310.668 19.4375 311.232 19.2393 311.69 18.8428C312.155 18.4463 312.387 17.8823 312.387 17.1509V16.2075ZM323.379 21.7241C322.244 21.7241 321.277 21.519 320.477 21.1089C319.677 20.6919 319.069 20.0493 318.652 19.1812C318.235 18.313 318.027 17.2021 318.027 15.8486C318.027 14.4473 318.262 13.3057 318.734 12.4238C319.213 11.5352 319.872 10.8823 320.713 10.4653C321.561 10.0483 322.542 9.83984 323.656 9.83984C324.449 9.83984 325.133 9.91846 325.707 10.0757C326.288 10.2261 326.794 10.4072 327.224 10.6191L326.301 13.0391C325.809 12.8408 325.351 12.6802 324.927 12.5571C324.504 12.4272 324.08 12.3623 323.656 12.3623C323.109 12.3623 322.655 12.4922 322.292 12.752C321.93 13.0049 321.66 13.3877 321.482 13.9004C321.304 14.4131 321.216 15.0557 321.216 15.8281C321.216 16.5869 321.311 17.2158 321.503 17.7148C321.694 18.2139 321.971 18.5864 322.333 18.8325C322.696 19.0718 323.136 19.1914 323.656 19.1914C324.305 19.1914 324.883 19.106 325.389 18.9351C325.895 18.7573 326.387 18.5112 326.865 18.1968V20.873C326.387 21.1738 325.884 21.3892 325.358 21.519C324.839 21.6558 324.179 21.7241 323.379 21.7241ZM334.361 19.2324C334.703 19.2324 335.034 19.1982 335.356 19.1299C335.684 19.0615 336.009 18.9761 336.33 18.8735V21.2012C335.995 21.3516 335.578 21.4746 335.079 21.5703C334.587 21.6729 334.047 21.7241 333.459 21.7241C332.775 21.7241 332.16 21.6147 331.613 21.396C331.073 21.1704 330.646 20.7842 330.331 20.2373C330.024 19.6836 329.87 18.9146 329.87 17.9302V12.4033H328.373V11.0806L330.095 10.0347L330.998 7.61475H332.997V10.0552H336.207V12.4033H332.997V17.9302C332.997 18.3677 333.12 18.6958 333.366 18.9146C333.619 19.1265 333.951 19.2324 334.361 19.2324Z" fill="#080809"/>
<path d="M265.158 100.047H263.664V93.9917H256.914V100.047H255.42V87.1978H256.914V92.6733H263.664V87.1978H265.158V100.047ZM272.18 90.2388C273.001 90.2388 273.704 90.4204 274.29 90.7837C274.876 91.147 275.324 91.6567 275.635 92.313C275.945 92.9634 276.1 93.7251 276.1 94.5981V95.5034H269.447C269.465 96.6343 269.746 97.4956 270.291 98.0874C270.836 98.6792 271.603 98.9751 272.594 98.9751C273.203 98.9751 273.742 98.9194 274.211 98.8081C274.68 98.6968 275.166 98.5327 275.67 98.3159V99.5991C275.183 99.8159 274.7 99.9741 274.22 100.074C273.745 100.173 273.182 100.223 272.532 100.223C271.606 100.223 270.798 100.036 270.106 99.6606C269.421 99.2798 268.888 98.7231 268.507 97.9907C268.126 97.2583 267.935 96.3618 267.935 95.3013C267.935 94.2642 268.108 93.3677 268.454 92.6118C268.805 91.8501 269.298 91.2642 269.93 90.854C270.569 90.4438 271.319 90.2388 272.18 90.2388ZM272.163 91.4341C271.384 91.4341 270.763 91.689 270.3 92.1987C269.837 92.7085 269.561 93.4204 269.473 94.3345H274.571C274.565 93.7603 274.474 93.2563 274.299 92.8228C274.129 92.3833 273.868 92.0435 273.516 91.8032C273.165 91.5571 272.714 91.4341 272.163 91.4341ZM280.047 100.047H278.579V86.3716H280.047V100.047ZM287.658 90.2388C288.859 90.2388 289.817 90.6519 290.532 91.478C291.247 92.3042 291.604 93.5464 291.604 95.2046C291.604 96.3003 291.44 97.2202 291.112 97.9644C290.784 98.7085 290.321 99.271 289.723 99.6519C289.132 100.033 288.431 100.223 287.623 100.223C287.113 100.223 286.665 100.156 286.278 100.021C285.891 99.8862 285.56 99.7046 285.285 99.4761C285.01 99.2476 284.781 98.9985 284.599 98.729H284.494C284.512 98.9575 284.532 99.2329 284.555 99.5552C284.585 99.8774 284.599 100.159 284.599 100.399V104.354H283.132V90.4146H284.336L284.529 91.8384H284.599C284.787 91.5454 285.015 91.2788 285.285 91.0386C285.555 90.7925 285.883 90.5991 286.269 90.4585C286.662 90.312 287.125 90.2388 287.658 90.2388ZM287.403 91.4692C286.735 91.4692 286.196 91.5981 285.786 91.856C285.382 92.1138 285.086 92.5005 284.898 93.0161C284.711 93.5259 284.611 94.1675 284.599 94.9409V95.2222C284.599 96.0366 284.687 96.7251 284.863 97.2876C285.045 97.8501 285.341 98.2778 285.751 98.5708C286.167 98.8638 286.723 99.0103 287.421 99.0103C288.018 99.0103 288.516 98.8491 288.915 98.5269C289.313 98.2046 289.609 97.7563 289.803 97.1821C290.002 96.6021 290.101 95.937 290.101 95.187C290.101 94.0503 289.879 93.1479 289.433 92.48C288.994 91.8062 288.317 91.4692 287.403 91.4692ZM299.022 87.1978L294.241 100.047H292.8L297.59 87.1978H299.022ZM302.476 100.047H300.982V87.1978H308.137V88.5161H302.476V93.2271H307.794V94.5366H302.476V100.047ZM318.341 100.047L316.759 95.9692H311.608L310.035 100.047H308.523L313.551 87.145H314.895L319.888 100.047H318.341ZM316.31 94.6421L314.807 90.5903C314.772 90.4849 314.714 90.312 314.632 90.0718C314.555 89.8315 314.476 89.5825 314.394 89.3247C314.312 89.0669 314.245 88.8589 314.192 88.7007C314.134 88.9409 314.069 89.1812 313.999 89.4214C313.934 89.6558 313.87 89.8755 313.805 90.0806C313.741 90.2798 313.685 90.4497 313.638 90.5903L312.109 94.6421H316.31ZM332.816 93.605C332.816 94.6597 332.673 95.6147 332.386 96.4702C332.098 97.3257 331.671 98.0493 331.102 98.6411C330.54 99.2329 329.837 99.6636 328.993 99.9331L332.016 103.106H329.881L327.393 100.206C327.317 100.206 327.238 100.208 327.156 100.214C327.08 100.22 327.004 100.223 326.928 100.223C325.931 100.223 325.061 100.065 324.317 99.7485C323.579 99.4321 322.964 98.981 322.471 98.395C321.985 97.8091 321.619 97.1089 321.373 96.2944C321.133 95.48 321.013 94.5776 321.013 93.5874C321.013 92.2749 321.229 91.1235 321.663 90.1333C322.096 89.1431 322.753 88.3726 323.632 87.8218C324.516 87.271 325.624 86.9956 326.954 86.9956C328.225 86.9956 329.295 87.2681 330.162 87.813C331.035 88.3579 331.694 89.1255 332.139 90.1157C332.591 91.1001 332.816 92.2632 332.816 93.605ZM322.586 93.605C322.586 94.6948 322.741 95.6382 323.052 96.4351C323.362 97.2319 323.837 97.8472 324.475 98.2808C325.12 98.7144 325.937 98.9312 326.928 98.9312C327.924 98.9312 328.738 98.7144 329.371 98.2808C330.01 97.8472 330.481 97.2319 330.786 96.4351C331.091 95.6382 331.243 94.6948 331.243 93.605C331.243 91.9468 330.894 90.6519 330.197 89.7202C329.506 88.7827 328.425 88.314 326.954 88.314C325.958 88.314 325.138 88.5278 324.493 88.9556C323.848 89.3833 323.368 89.9927 323.052 90.7837C322.741 91.5688 322.586 92.5093 322.586 93.605Z" fill="#5E6282"/>
<path d="M258.777 137.802C260.435 137.802 261.645 138.127 262.407 138.777C263.175 139.422 263.558 140.348 263.558 141.555C263.558 142.1 263.468 142.618 263.286 143.11C263.11 143.597 262.823 144.027 262.425 144.402C262.026 144.771 261.502 145.064 260.851 145.281C260.207 145.492 259.416 145.598 258.478 145.598H256.914V150.651H255.42V137.802H258.777ZM258.637 139.076H256.914V144.314H258.311C259.132 144.314 259.814 144.227 260.359 144.051C260.91 143.875 261.323 143.591 261.598 143.198C261.874 142.8 262.012 142.272 262.012 141.616C262.012 140.761 261.739 140.125 261.194 139.709C260.649 139.287 259.797 139.076 258.637 139.076ZM270.405 140.843C270.598 140.843 270.801 140.854 271.012 140.878C271.222 140.896 271.41 140.922 271.574 140.957L271.389 142.311C271.231 142.27 271.055 142.237 270.862 142.214C270.669 142.19 270.487 142.179 270.317 142.179C269.93 142.179 269.564 142.258 269.219 142.416C268.879 142.568 268.58 142.791 268.322 143.084C268.064 143.371 267.862 143.72 267.716 144.13C267.569 144.534 267.496 144.985 267.496 145.483V150.651H266.028V141.019H267.241L267.399 142.794H267.461C267.66 142.437 267.9 142.111 268.181 141.818C268.463 141.52 268.788 141.282 269.157 141.106C269.532 140.931 269.948 140.843 270.405 140.843ZM277.102 140.843C277.923 140.843 278.626 141.024 279.212 141.388C279.798 141.751 280.246 142.261 280.556 142.917C280.867 143.567 281.022 144.329 281.022 145.202V146.107H274.369C274.387 147.238 274.668 148.1 275.213 148.691C275.758 149.283 276.525 149.579 277.515 149.579C278.125 149.579 278.664 149.523 279.133 149.412C279.601 149.301 280.088 149.137 280.592 148.92V150.203C280.105 150.42 279.622 150.578 279.141 150.678C278.667 150.777 278.104 150.827 277.454 150.827C276.528 150.827 275.72 150.64 275.028 150.265C274.343 149.884 273.809 149.327 273.429 148.595C273.048 147.862 272.857 146.966 272.857 145.905C272.857 144.868 273.03 143.972 273.376 143.216C273.727 142.454 274.22 141.868 274.852 141.458C275.491 141.048 276.241 140.843 277.102 140.843ZM277.085 142.038C276.305 142.038 275.684 142.293 275.221 142.803C274.759 143.312 274.483 144.024 274.395 144.938H279.493C279.487 144.364 279.396 143.86 279.221 143.427C279.051 142.987 278.79 142.647 278.438 142.407C278.087 142.161 277.636 142.038 277.085 142.038ZM289.732 148.015C289.732 148.63 289.577 149.148 289.266 149.57C288.962 149.986 288.522 150.3 287.948 150.511C287.38 150.722 286.7 150.827 285.909 150.827C285.235 150.827 284.652 150.774 284.16 150.669C283.668 150.563 283.237 150.414 282.868 150.221V148.876C283.261 149.069 283.729 149.245 284.274 149.403C284.819 149.562 285.376 149.641 285.944 149.641C286.776 149.641 287.38 149.506 287.755 149.236C288.13 148.967 288.317 148.601 288.317 148.138C288.317 147.874 288.241 147.643 288.089 147.443C287.942 147.238 287.693 147.042 287.342 146.854C286.99 146.661 286.504 146.45 285.883 146.222C285.267 145.987 284.734 145.756 284.283 145.527C283.838 145.293 283.492 145.009 283.246 144.675C283.006 144.341 282.886 143.907 282.886 143.374C282.886 142.56 283.214 141.936 283.87 141.502C284.532 141.062 285.399 140.843 286.471 140.843C287.052 140.843 287.594 140.901 288.097 141.019C288.607 141.13 289.082 141.282 289.521 141.476L289.029 142.645C288.631 142.475 288.206 142.331 287.755 142.214C287.304 142.097 286.844 142.038 286.375 142.038C285.701 142.038 285.182 142.149 284.819 142.372C284.462 142.595 284.283 142.899 284.283 143.286C284.283 143.585 284.365 143.831 284.529 144.024C284.699 144.218 284.969 144.399 285.338 144.569C285.707 144.739 286.193 144.938 286.797 145.167C287.4 145.39 287.922 145.621 288.361 145.861C288.801 146.096 289.138 146.383 289.372 146.723C289.612 147.057 289.732 147.487 289.732 148.015ZM298.31 148.015C298.31 148.63 298.155 149.148 297.845 149.57C297.54 149.986 297.1 150.3 296.526 150.511C295.958 150.722 295.278 150.827 294.487 150.827C293.813 150.827 293.23 150.774 292.738 150.669C292.246 150.563 291.815 150.414 291.446 150.221V148.876C291.839 149.069 292.307 149.245 292.852 149.403C293.397 149.562 293.954 149.641 294.522 149.641C295.354 149.641 295.958 149.506 296.333 149.236C296.708 148.967 296.895 148.601 296.895 148.138C296.895 147.874 296.819 147.643 296.667 147.443C296.52 147.238 296.271 147.042 295.92 146.854C295.568 146.661 295.082 146.45 294.461 146.222C293.846 145.987 293.312 145.756 292.861 145.527C292.416 145.293 292.07 145.009 291.824 144.675C291.584 144.341 291.464 143.907 291.464 143.374C291.464 142.56 291.792 141.936 292.448 141.502C293.11 141.062 293.977 140.843 295.05 140.843C295.63 140.843 296.172 140.901 296.676 141.019C297.185 141.13 297.66 141.282 298.099 141.476L297.607 142.645C297.209 142.475 296.784 142.331 296.333 142.214C295.882 142.097 295.422 142.038 294.953 142.038C294.279 142.038 293.761 142.149 293.397 142.372C293.04 142.595 292.861 142.899 292.861 143.286C292.861 143.585 292.943 143.831 293.107 144.024C293.277 144.218 293.547 144.399 293.916 144.569C294.285 144.739 294.771 144.938 295.375 145.167C295.978 145.39 296.5 145.621 296.939 145.861C297.379 146.096 297.716 146.383 297.95 146.723C298.19 147.057 298.31 147.487 298.31 148.015Z" fill="#5E6282"/>
<path d="M263.479 199.85L261.897 195.771H256.747L255.174 199.85H253.662L258.689 186.947H260.034L265.026 199.85H263.479ZM261.449 194.444L259.946 190.393C259.911 190.287 259.852 190.114 259.77 189.874C259.694 189.634 259.615 189.385 259.533 189.127C259.451 188.869 259.384 188.661 259.331 188.503C259.272 188.743 259.208 188.983 259.138 189.224C259.073 189.458 259.009 189.678 258.944 189.883C258.88 190.082 258.824 190.252 258.777 190.393L257.248 194.444H261.449ZM270.88 191.359H268.48V199.85H267.021V191.359H265.316V190.656L267.021 190.173V189.531C267.021 188.723 267.141 188.066 267.382 187.562C267.622 187.053 267.971 186.678 268.428 186.438C268.885 186.197 269.441 186.077 270.097 186.077C270.467 186.077 270.804 186.109 271.108 186.174C271.419 186.238 271.691 186.312 271.926 186.394L271.548 187.545C271.348 187.48 271.123 187.422 270.871 187.369C270.625 187.311 270.373 187.281 270.115 187.281C269.558 187.281 269.145 187.463 268.876 187.826C268.612 188.184 268.48 188.746 268.48 189.514V190.217H270.88V191.359ZM276.935 191.359H274.536V199.85H273.077V191.359H271.372V190.656L273.077 190.173V189.531C273.077 188.723 273.197 188.066 273.437 187.562C273.678 187.053 274.026 186.678 274.483 186.438C274.94 186.197 275.497 186.077 276.153 186.077C276.522 186.077 276.859 186.109 277.164 186.174C277.474 186.238 277.747 186.312 277.981 186.394L277.603 187.545C277.404 187.48 277.179 187.422 276.927 187.369C276.68 187.311 276.429 187.281 276.171 187.281C275.614 187.281 275.201 187.463 274.931 187.826C274.668 188.184 274.536 188.746 274.536 189.514V190.217H276.935V191.359ZM280.161 190.217V199.85H278.702V190.217H280.161ZM279.449 186.613C279.689 186.613 279.894 186.692 280.064 186.851C280.24 187.003 280.328 187.243 280.328 187.571C280.328 187.894 280.24 188.134 280.064 188.292C279.894 188.45 279.689 188.529 279.449 188.529C279.197 188.529 278.986 188.45 278.816 188.292C278.652 188.134 278.57 187.894 278.57 187.571C278.57 187.243 278.652 187.003 278.816 186.851C278.986 186.692 279.197 186.613 279.449 186.613ZM284.705 199.85H283.237V186.174H284.705V199.85ZM291.393 190.059C292.542 190.059 293.394 190.316 293.951 190.832C294.508 191.348 294.786 192.171 294.786 193.302V199.85H293.722L293.441 198.426H293.371C293.101 198.777 292.82 199.073 292.527 199.313C292.234 199.548 291.894 199.727 291.508 199.85C291.127 199.967 290.658 200.025 290.101 200.025C289.515 200.025 288.994 199.923 288.537 199.718C288.086 199.513 287.728 199.202 287.465 198.786C287.207 198.37 287.078 197.843 287.078 197.204C287.078 196.243 287.459 195.505 288.221 194.989C288.982 194.474 290.142 194.192 291.701 194.146L293.362 194.075V193.486C293.362 192.654 293.183 192.071 292.826 191.737C292.469 191.403 291.965 191.236 291.314 191.236C290.81 191.236 290.33 191.31 289.873 191.456C289.416 191.603 288.982 191.775 288.572 191.975L288.124 190.867C288.557 190.645 289.055 190.454 289.618 190.296C290.18 190.138 290.772 190.059 291.393 190.059ZM293.345 195.104L291.877 195.165C290.676 195.212 289.829 195.408 289.337 195.754C288.845 196.1 288.598 196.589 288.598 197.222C288.598 197.772 288.765 198.18 289.099 198.443C289.433 198.707 289.876 198.839 290.427 198.839C291.282 198.839 291.982 198.602 292.527 198.127C293.072 197.652 293.345 196.94 293.345 195.991V195.104ZM300.903 198.83C301.143 198.83 301.389 198.81 301.641 198.769C301.893 198.728 302.098 198.678 302.257 198.619V199.753C302.087 199.829 301.849 199.894 301.545 199.946C301.246 199.999 300.953 200.025 300.666 200.025C300.156 200.025 299.693 199.938 299.277 199.762C298.861 199.58 298.527 199.275 298.275 198.848C298.029 198.42 297.906 197.828 297.906 197.072V191.359H296.535V190.647L297.915 190.076L298.495 187.984H299.374V190.217H302.195V191.359H299.374V197.028C299.374 197.632 299.512 198.083 299.787 198.382C300.068 198.681 300.44 198.83 300.903 198.83ZM307.917 190.041C308.737 190.041 309.44 190.223 310.026 190.586C310.612 190.949 311.06 191.459 311.371 192.115C311.681 192.766 311.837 193.527 311.837 194.4V195.306H305.183C305.201 196.437 305.482 197.298 306.027 197.89C306.572 198.481 307.34 198.777 308.33 198.777C308.939 198.777 309.478 198.722 309.947 198.61C310.416 198.499 310.902 198.335 311.406 198.118V199.401C310.92 199.618 310.436 199.776 309.956 199.876C309.481 199.976 308.919 200.025 308.268 200.025C307.343 200.025 306.534 199.838 305.843 199.463C305.157 199.082 304.624 198.525 304.243 197.793C303.862 197.061 303.672 196.164 303.672 195.104C303.672 194.066 303.845 193.17 304.19 192.414C304.542 191.652 305.034 191.066 305.667 190.656C306.305 190.246 307.055 190.041 307.917 190.041ZM307.899 191.236C307.12 191.236 306.499 191.491 306.036 192.001C305.573 192.511 305.298 193.223 305.21 194.137H310.307C310.302 193.562 310.211 193.059 310.035 192.625C309.865 192.186 309.604 191.846 309.253 191.605C308.901 191.359 308.45 191.236 307.899 191.236ZM320.547 197.213C320.547 197.828 320.391 198.347 320.081 198.769C319.776 199.185 319.337 199.498 318.763 199.709C318.194 199.92 317.514 200.025 316.723 200.025C316.05 200.025 315.467 199.973 314.974 199.867C314.482 199.762 314.052 199.612 313.682 199.419V198.074C314.075 198.268 314.544 198.443 315.089 198.602C315.634 198.76 316.19 198.839 316.759 198.839C317.591 198.839 318.194 198.704 318.569 198.435C318.944 198.165 319.132 197.799 319.132 197.336C319.132 197.072 319.055 196.841 318.903 196.642C318.757 196.437 318.508 196.24 318.156 196.053C317.805 195.859 317.318 195.648 316.697 195.42C316.082 195.186 315.549 194.954 315.097 194.726C314.652 194.491 314.306 194.207 314.06 193.873C313.82 193.539 313.7 193.105 313.7 192.572C313.7 191.758 314.028 191.134 314.684 190.7C315.346 190.261 316.214 190.041 317.286 190.041C317.866 190.041 318.408 190.1 318.912 190.217C319.422 190.328 319.896 190.48 320.336 190.674L319.844 191.843C319.445 191.673 319.02 191.529 318.569 191.412C318.118 191.295 317.658 191.236 317.189 191.236C316.515 191.236 315.997 191.348 315.634 191.57C315.276 191.793 315.097 192.098 315.097 192.484C315.097 192.783 315.18 193.029 315.344 193.223C315.513 193.416 315.783 193.598 316.152 193.768C316.521 193.938 317.008 194.137 317.611 194.365C318.215 194.588 318.736 194.819 319.176 195.06C319.615 195.294 319.952 195.581 320.186 195.921C320.427 196.255 320.547 196.686 320.547 197.213Z" fill="#5E6282"/>
<path d="M514.915 21.519L511.306 9.75781H511.214C511.227 10.0381 511.248 10.4619 511.275 11.0293C511.309 11.5898 511.34 12.188 511.367 12.8237C511.395 13.4595 511.408 14.0337 511.408 14.5464V21.519H508.568V6.52783H512.895L516.443 17.9917H516.505L520.268 6.52783H524.595V21.519H521.632V14.4233C521.632 13.9517 521.638 13.4082 521.652 12.793C521.673 12.1777 521.697 11.5933 521.724 11.0396C521.751 10.479 521.772 10.0586 521.785 9.77832H521.693L517.827 21.519H514.915ZM538.551 15.7666C538.551 16.7236 538.421 17.5713 538.161 18.3096C537.908 19.0479 537.535 19.6733 537.043 20.186C536.558 20.6919 535.97 21.0747 535.28 21.3345C534.596 21.5942 533.823 21.7241 532.962 21.7241C532.156 21.7241 531.414 21.5942 530.737 21.3345C530.067 21.0747 529.483 20.6919 528.984 20.186C528.491 19.6733 528.109 19.0479 527.835 18.3096C527.569 17.5713 527.435 16.7236 527.435 15.7666C527.435 14.4951 527.661 13.4185 528.112 12.5366C528.563 11.6548 529.206 10.9849 530.04 10.5269C530.874 10.0688 531.868 9.83984 533.024 9.83984C534.097 9.83984 535.047 10.0688 535.874 10.5269C536.708 10.9849 537.361 11.6548 537.833 12.5366C538.311 13.4185 538.551 14.4951 538.551 15.7666ZM530.624 15.7666C530.624 16.5186 530.706 17.1509 530.87 17.6636C531.034 18.1763 531.291 18.5625 531.639 18.8223C531.988 19.082 532.443 19.2119 533.003 19.2119C533.557 19.2119 534.005 19.082 534.346 18.8223C534.695 18.5625 534.948 18.1763 535.105 17.6636C535.269 17.1509 535.351 16.5186 535.351 15.7666C535.351 15.0078 535.269 14.3789 535.105 13.8799C534.948 13.374 534.695 12.9946 534.346 12.7417C533.998 12.4888 533.543 12.3623 532.983 12.3623C532.156 12.3623 531.554 12.646 531.178 13.2134C530.809 13.7808 530.624 14.6318 530.624 15.7666ZM547.533 9.83984C547.69 9.83984 547.871 9.8501 548.076 9.87061C548.288 9.88428 548.459 9.90479 548.589 9.93213L548.353 12.8647C548.251 12.8306 548.104 12.8066 547.912 12.793C547.728 12.7725 547.567 12.7622 547.43 12.7622C547.027 12.7622 546.634 12.8135 546.251 12.916C545.875 13.0186 545.537 13.186 545.236 13.4185C544.935 13.644 544.696 13.9448 544.518 14.3208C544.347 14.6899 544.262 15.1445 544.262 15.6846V21.519H541.135V10.0552H543.503L543.965 11.9829H544.118C544.344 11.5933 544.624 11.2378 544.959 10.9165C545.301 10.5884 545.687 10.3286 546.118 10.1372C546.555 9.93896 547.027 9.83984 547.533 9.83984ZM555.398 9.83984C556.457 9.83984 557.37 10.0449 558.135 10.4551C558.901 10.8584 559.492 11.4463 559.909 12.2188C560.326 12.9912 560.535 13.9346 560.535 15.0488V16.5664H553.142C553.176 17.4482 553.439 18.1421 553.931 18.6479C554.43 19.147 555.121 19.3965 556.003 19.3965C556.734 19.3965 557.404 19.3213 558.012 19.1709C558.621 19.0205 559.246 18.7949 559.889 18.4941V20.9141C559.322 21.1943 558.727 21.3994 558.105 21.5293C557.49 21.6592 556.741 21.7241 555.859 21.7241C554.711 21.7241 553.692 21.5122 552.803 21.0884C551.922 20.6646 551.228 20.0186 550.722 19.1504C550.223 18.2822 549.973 17.1885 549.973 15.8691C549.973 14.5293 550.199 13.415 550.65 12.5264C551.108 11.6309 551.744 10.9609 552.557 10.5166C553.371 10.0654 554.318 9.83984 555.398 9.83984ZM555.418 12.0649C554.81 12.0649 554.304 12.2598 553.901 12.6494C553.504 13.0391 553.275 13.6509 553.214 14.4849H557.602C557.595 14.02 557.51 13.6064 557.346 13.2441C557.189 12.8818 556.949 12.5947 556.628 12.3828C556.314 12.1709 555.91 12.0649 555.418 12.0649Z" fill="#080809"/>
<path d="M516.499 102.859L514.917 98.7808H509.766L508.193 102.859H506.681L511.709 89.9565H513.053L518.046 102.859H516.499ZM514.469 97.4536L512.966 93.4019C512.93 93.2964 512.872 93.1235 512.79 92.8833C512.714 92.6431 512.635 92.394 512.552 92.1362C512.47 91.8784 512.403 91.6704 512.35 91.5122C512.292 91.7524 512.227 91.9927 512.157 92.2329C512.093 92.4673 512.028 92.687 511.964 92.8921C511.899 93.0913 511.844 93.2612 511.797 93.4019L510.267 97.4536H514.469ZM521.069 93.2261V102.859H519.61V93.2261H521.069ZM520.357 89.6226C520.597 89.6226 520.802 89.7017 520.972 89.8599C521.148 90.0122 521.236 90.2524 521.236 90.5806C521.236 90.9028 521.148 91.1431 520.972 91.3013C520.802 91.4595 520.597 91.5386 520.357 91.5386C520.105 91.5386 519.894 91.4595 519.724 91.3013C519.56 91.1431 519.478 90.9028 519.478 90.5806C519.478 90.2524 519.56 90.0122 519.724 89.8599C519.894 89.7017 520.105 89.6226 520.357 89.6226ZM528.54 93.0503C528.733 93.0503 528.935 93.062 529.146 93.0854C529.357 93.103 529.545 93.1294 529.709 93.1646L529.524 94.5181C529.366 94.4771 529.19 94.4448 528.997 94.4214C528.803 94.3979 528.622 94.3862 528.452 94.3862C528.065 94.3862 527.699 94.4653 527.353 94.6235C527.013 94.7759 526.715 94.9985 526.457 95.2915C526.199 95.5786 525.997 95.9272 525.85 96.3374C525.704 96.7417 525.631 97.1929 525.631 97.6909V102.859H524.163V93.2261H525.376L525.534 95.0015H525.595C525.795 94.644 526.035 94.3188 526.316 94.0259C526.597 93.7271 526.923 93.4897 527.292 93.314C527.667 93.1382 528.083 93.0503 528.54 93.0503ZM532.996 102.859H531.528V89.1831H532.996V102.859ZM537.54 93.2261V102.859H536.081V93.2261H537.54ZM536.828 89.6226C537.068 89.6226 537.273 89.7017 537.443 89.8599C537.619 90.0122 537.707 90.2524 537.707 90.5806C537.707 90.9028 537.619 91.1431 537.443 91.3013C537.273 91.4595 537.068 91.5386 536.828 91.5386C536.576 91.5386 536.365 91.4595 536.195 91.3013C536.031 91.1431 535.949 90.9028 535.949 90.5806C535.949 90.2524 536.031 90.0122 536.195 89.8599C536.365 89.7017 536.576 89.6226 536.828 89.6226ZM545.195 93.0503C546.338 93.0503 547.202 93.3315 547.788 93.894C548.374 94.4507 548.667 95.3472 548.667 96.5835V102.859H547.225V96.6802C547.225 95.8774 547.041 95.2769 546.672 94.8784C546.308 94.48 545.749 94.2808 544.993 94.2808C543.927 94.2808 543.177 94.5825 542.743 95.186C542.309 95.7896 542.093 96.6655 542.093 97.814V102.859H540.634V93.2261H541.811L542.031 94.6147H542.11C542.315 94.2749 542.576 93.9907 542.892 93.7622C543.209 93.5278 543.563 93.3521 543.956 93.2349C544.348 93.1118 544.761 93.0503 545.195 93.0503ZM555.382 93.0503C556.202 93.0503 556.905 93.2319 557.491 93.5952C558.077 93.9585 558.525 94.4683 558.836 95.1245C559.146 95.7749 559.302 96.5366 559.302 97.4097V98.3149H552.648C552.666 99.4458 552.947 100.307 553.492 100.899C554.037 101.491 554.804 101.787 555.795 101.787C556.404 101.787 556.943 101.731 557.412 101.62C557.881 101.508 558.367 101.344 558.871 101.127V102.411C558.385 102.627 557.901 102.786 557.421 102.885C556.946 102.985 556.384 103.035 555.733 103.035C554.807 103.035 553.999 102.847 553.307 102.472C552.622 102.091 552.089 101.535 551.708 100.802C551.327 100.07 551.136 99.1733 551.136 98.1128C551.136 97.0757 551.309 96.1792 551.655 95.4233C552.007 94.6616 552.499 94.0757 553.132 93.6655C553.77 93.2554 554.52 93.0503 555.382 93.0503ZM555.364 94.2456C554.585 94.2456 553.964 94.5005 553.501 95.0103C553.038 95.52 552.762 96.2319 552.675 97.146H557.772C557.766 96.5718 557.676 96.0679 557.5 95.6343C557.33 95.1948 557.069 94.855 556.718 94.6147C556.366 94.3687 555.915 94.2456 555.364 94.2456ZM566.069 94.3687H563.67V102.859H562.211V94.3687H560.506V93.6655L562.211 93.1821V92.5405C562.211 91.7319 562.331 91.0757 562.571 90.5718C562.811 90.062 563.16 89.687 563.617 89.4468C564.074 89.2065 564.631 89.0864 565.287 89.0864C565.656 89.0864 565.993 89.1187 566.298 89.1831C566.608 89.2476 566.881 89.3208 567.115 89.4028L566.737 90.5542C566.538 90.4897 566.312 90.4312 566.06 90.3784C565.814 90.3198 565.562 90.2905 565.304 90.2905C564.748 90.2905 564.335 90.4722 564.065 90.8354C563.802 91.1929 563.67 91.7554 563.67 92.5229V93.2261H566.069V94.3687ZM571.553 93.0503C572.374 93.0503 573.077 93.2319 573.663 93.5952C574.249 93.9585 574.697 94.4683 575.008 95.1245C575.318 95.7749 575.473 96.5366 575.473 97.4097V98.3149H568.82C568.838 99.4458 569.119 100.307 569.664 100.899C570.209 101.491 570.976 101.787 571.967 101.787C572.576 101.787 573.115 101.731 573.584 101.62C574.052 101.508 574.539 101.344 575.043 101.127V102.411C574.556 102.627 574.073 102.786 573.593 102.885C573.118 102.985 572.555 103.035 571.905 103.035C570.979 103.035 570.171 102.847 569.479 102.472C568.794 102.091 568.26 101.535 567.88 100.802C567.499 100.07 567.308 99.1733 567.308 98.1128C567.308 97.0757 567.481 96.1792 567.827 95.4233C568.178 94.6616 568.671 94.0757 569.303 93.6655C569.942 93.2554 570.692 93.0503 571.553 93.0503ZM571.536 94.2456C570.757 94.2456 570.135 94.5005 569.673 95.0103C569.21 95.52 568.934 96.2319 568.846 97.146H573.944C573.938 96.5718 573.847 96.0679 573.672 95.6343C573.502 95.1948 573.241 94.855 572.889 94.6147C572.538 94.3687 572.087 94.2456 571.536 94.2456ZM581.661 93.0503C582.481 93.0503 583.184 93.2319 583.77 93.5952C584.356 93.9585 584.804 94.4683 585.115 95.1245C585.426 95.7749 585.581 96.5366 585.581 97.4097V98.3149H578.927C578.945 99.4458 579.226 100.307 579.771 100.899C580.316 101.491 581.084 101.787 582.074 101.787C582.683 101.787 583.222 101.731 583.691 101.62C584.16 101.508 584.646 101.344 585.15 101.127V102.411C584.664 102.627 584.18 102.786 583.7 102.885C583.225 102.985 582.663 103.035 582.012 103.035C581.087 103.035 580.278 102.847 579.587 102.472C578.901 102.091 578.368 101.535 577.987 100.802C577.606 100.07 577.416 99.1733 577.416 98.1128C577.416 97.0757 577.589 96.1792 577.934 95.4233C578.286 94.6616 578.778 94.0757 579.411 93.6655C580.05 93.2554 580.8 93.0503 581.661 93.0503ZM581.643 94.2456C580.864 94.2456 580.243 94.5005 579.78 95.0103C579.317 95.52 579.042 96.2319 578.954 97.146H584.052C584.046 96.5718 583.955 96.0679 583.779 95.6343C583.609 95.1948 583.348 94.855 582.997 94.6147C582.645 94.3687 582.194 94.2456 581.643 94.2456ZM594.291 100.222C594.291 100.837 594.135 101.356 593.825 101.778C593.52 102.194 593.081 102.507 592.507 102.718C591.938 102.929 591.259 103.035 590.468 103.035C589.794 103.035 589.211 102.982 588.719 102.876C588.226 102.771 587.796 102.622 587.427 102.428V101.083C587.819 101.277 588.288 101.453 588.833 101.611C589.378 101.769 589.934 101.848 590.503 101.848C591.335 101.848 591.938 101.713 592.313 101.444C592.688 101.174 592.876 100.808 592.876 100.345C592.876 100.082 592.8 99.8501 592.647 99.6509C592.501 99.4458 592.252 99.2495 591.9 99.062C591.549 98.8687 591.062 98.6577 590.441 98.4292C589.826 98.1948 589.293 97.9634 588.842 97.7349C588.396 97.5005 588.051 97.2163 587.804 96.8823C587.564 96.5483 587.444 96.1147 587.444 95.5815C587.444 94.7671 587.772 94.1431 588.428 93.7095C589.091 93.27 589.958 93.0503 591.03 93.0503C591.61 93.0503 592.152 93.1089 592.656 93.2261C593.166 93.3374 593.64 93.4897 594.08 93.6831L593.588 94.8521C593.189 94.6821 592.764 94.5386 592.313 94.4214C591.862 94.3042 591.402 94.2456 590.933 94.2456C590.26 94.2456 589.741 94.3569 589.378 94.5796C589.02 94.8022 588.842 95.1069 588.842 95.4937C588.842 95.7925 588.924 96.0386 589.088 96.2319C589.258 96.4253 589.527 96.6069 589.896 96.7769C590.265 96.9468 590.752 97.146 591.355 97.3745C591.959 97.5972 592.48 97.8286 592.92 98.0688C593.359 98.3032 593.696 98.5903 593.93 98.9302C594.171 99.2642 594.291 99.6948 594.291 100.222Z" fill="#5E6282"/>
<path d="M516.499 153.463L514.917 149.385H509.766L508.193 153.463H506.681L511.709 140.561H513.053L518.046 153.463H516.499ZM514.469 148.058L512.966 144.006C512.93 143.9 512.872 143.728 512.79 143.487C512.714 143.247 512.635 142.998 512.552 142.74C512.47 142.482 512.403 142.274 512.35 142.116C512.292 142.356 512.227 142.597 512.157 142.837C512.093 143.071 512.028 143.291 511.964 143.496C511.899 143.695 511.844 143.865 511.797 144.006L510.267 148.058H514.469ZM521.069 143.83V153.463H519.61V143.83H521.069ZM520.357 140.227C520.597 140.227 520.802 140.306 520.972 140.464C521.148 140.616 521.236 140.856 521.236 141.185C521.236 141.507 521.148 141.747 520.972 141.905C520.802 142.063 520.597 142.143 520.357 142.143C520.105 142.143 519.894 142.063 519.724 141.905C519.56 141.747 519.478 141.507 519.478 141.185C519.478 140.856 519.56 140.616 519.724 140.464C519.894 140.306 520.105 140.227 520.357 140.227ZM528.54 143.654C528.733 143.654 528.935 143.666 529.146 143.689C529.357 143.707 529.545 143.733 529.709 143.769L529.524 145.122C529.366 145.081 529.19 145.049 528.997 145.025C528.803 145.002 528.622 144.99 528.452 144.99C528.065 144.99 527.699 145.069 527.353 145.228C527.013 145.38 526.715 145.603 526.457 145.896C526.199 146.183 525.997 146.531 525.85 146.941C525.704 147.346 525.631 147.797 525.631 148.295V153.463H524.163V143.83H525.376L525.534 145.605H525.595C525.795 145.248 526.035 144.923 526.316 144.63C526.597 144.331 526.923 144.094 527.292 143.918C527.667 143.742 528.083 143.654 528.54 143.654ZM532.996 153.463H531.528V139.787H532.996V153.463ZM537.54 143.83V153.463H536.081V143.83H537.54ZM536.828 140.227C537.068 140.227 537.273 140.306 537.443 140.464C537.619 140.616 537.707 140.856 537.707 141.185C537.707 141.507 537.619 141.747 537.443 141.905C537.273 142.063 537.068 142.143 536.828 142.143C536.576 142.143 536.365 142.063 536.195 141.905C536.031 141.747 535.949 141.507 535.949 141.185C535.949 140.856 536.031 140.616 536.195 140.464C536.365 140.306 536.576 140.227 536.828 140.227ZM545.195 143.654C546.338 143.654 547.202 143.936 547.788 144.498C548.374 145.055 548.667 145.951 548.667 147.188V153.463H547.225V147.284C547.225 146.481 547.041 145.881 546.672 145.482C546.308 145.084 545.749 144.885 544.993 144.885C543.927 144.885 543.177 145.187 542.743 145.79C542.309 146.394 542.093 147.27 542.093 148.418V153.463H540.634V143.83H541.811L542.031 145.219H542.11C542.315 144.879 542.576 144.595 542.892 144.366C543.209 144.132 543.563 143.956 543.956 143.839C544.348 143.716 544.761 143.654 545.195 143.654ZM555.382 143.654C556.202 143.654 556.905 143.836 557.491 144.199C558.077 144.562 558.525 145.072 558.836 145.729C559.146 146.379 559.302 147.141 559.302 148.014V148.919H552.648C552.666 150.05 552.947 150.911 553.492 151.503C554.037 152.095 554.804 152.391 555.795 152.391C556.404 152.391 556.943 152.335 557.412 152.224C557.881 152.112 558.367 151.948 558.871 151.731V153.015C558.385 153.231 557.901 153.39 557.421 153.489C556.946 153.589 556.384 153.639 555.733 153.639C554.807 153.639 553.999 153.451 553.307 153.076C552.622 152.695 552.089 152.139 551.708 151.406C551.327 150.674 551.136 149.777 551.136 148.717C551.136 147.68 551.309 146.783 551.655 146.027C552.007 145.266 552.499 144.68 553.132 144.27C553.77 143.859 554.52 143.654 555.382 143.654ZM555.364 144.85C554.585 144.85 553.964 145.104 553.501 145.614C553.038 146.124 552.762 146.836 552.675 147.75H557.772C557.766 147.176 557.676 146.672 557.5 146.238C557.33 145.799 557.069 145.459 556.718 145.219C556.366 144.973 555.915 144.85 555.364 144.85Z" fill="#5E6282"/>
<path d="M508.439 202.661V189.812H509.933V201.325H515.637V202.661H508.439ZM525.929 197.827C525.929 198.618 525.827 199.324 525.622 199.945C525.417 200.566 525.121 201.091 524.734 201.519C524.347 201.946 523.879 202.274 523.328 202.503C522.783 202.726 522.165 202.837 521.473 202.837C520.829 202.837 520.237 202.726 519.698 202.503C519.165 202.274 518.702 201.946 518.309 201.519C517.923 201.091 517.621 200.566 517.404 199.945C517.193 199.324 517.088 198.618 517.088 197.827C517.088 196.772 517.266 195.876 517.624 195.138C517.981 194.394 518.491 193.828 519.153 193.441C519.821 193.049 520.615 192.853 521.535 192.853C522.414 192.853 523.181 193.049 523.838 193.441C524.5 193.834 525.012 194.402 525.376 195.146C525.745 195.885 525.929 196.778 525.929 197.827ZM518.599 197.827C518.599 198.601 518.702 199.271 518.907 199.84C519.112 200.408 519.428 200.848 519.856 201.158C520.284 201.469 520.835 201.624 521.509 201.624C522.177 201.624 522.724 201.469 523.152 201.158C523.586 200.848 523.905 200.408 524.11 199.84C524.315 199.271 524.418 198.601 524.418 197.827C524.418 197.06 524.315 196.397 524.11 195.841C523.905 195.278 523.589 194.845 523.161 194.54C522.733 194.235 522.179 194.083 521.5 194.083C520.498 194.083 519.762 194.414 519.294 195.076C518.831 195.738 518.599 196.655 518.599 197.827ZM536.292 202.644L534.578 197.036C534.502 196.796 534.428 196.562 534.358 196.333C534.294 196.099 534.232 195.876 534.174 195.665C534.121 195.448 534.071 195.249 534.024 195.067C533.983 194.88 533.948 194.719 533.919 194.584H533.857C533.834 194.719 533.802 194.88 533.76 195.067C533.719 195.249 533.67 195.448 533.611 195.665C533.558 195.882 533.5 196.11 533.435 196.351C533.371 196.585 533.298 196.822 533.216 197.062L531.423 202.644H529.779L527.125 193.011H528.636L530.025 198.328C530.119 198.68 530.207 199.028 530.289 199.374C530.377 199.714 530.45 200.036 530.509 200.341C530.573 200.64 530.62 200.9 530.649 201.123H530.719C530.755 200.977 530.793 200.801 530.834 200.596C530.881 200.391 530.93 200.174 530.983 199.945C531.042 199.711 531.103 199.479 531.168 199.251C531.232 199.017 531.297 198.797 531.361 198.592L533.136 193.011H534.71L536.424 198.583C536.511 198.864 536.596 199.157 536.678 199.462C536.766 199.767 536.845 200.062 536.916 200.35C536.986 200.631 537.036 200.883 537.065 201.105H537.135C537.159 200.906 537.203 200.66 537.267 200.367C537.332 200.074 537.405 199.752 537.487 199.4C537.575 199.049 537.666 198.691 537.76 198.328L539.166 193.011H540.651L537.988 202.644H536.292ZM551.374 194.171H548.974V202.661H547.515V194.171H545.81V193.468L547.515 192.984V192.343C547.515 191.534 547.635 190.878 547.876 190.374C548.116 189.864 548.465 189.489 548.922 189.249C549.379 189.009 549.935 188.889 550.592 188.889C550.961 188.889 551.298 188.921 551.602 188.985C551.913 189.05 552.185 189.123 552.42 189.205L552.042 190.356C551.843 190.292 551.617 190.233 551.365 190.181C551.119 190.122 550.867 190.093 550.609 190.093C550.052 190.093 549.639 190.274 549.37 190.638C549.106 190.995 548.974 191.558 548.974 192.325V193.028H551.374V194.171ZM556.753 192.87C557.901 192.87 558.754 193.128 559.31 193.644C559.867 194.159 560.145 194.982 560.145 196.113V202.661H559.082L558.801 201.237H558.73C558.461 201.589 558.179 201.885 557.886 202.125C557.594 202.359 557.254 202.538 556.867 202.661C556.486 202.778 556.017 202.837 555.461 202.837C554.875 202.837 554.353 202.734 553.896 202.529C553.445 202.324 553.088 202.014 552.824 201.598C552.566 201.182 552.437 200.654 552.437 200.016C552.437 199.055 552.818 198.316 553.58 197.801C554.342 197.285 555.502 197.004 557.06 196.957L558.721 196.887V196.298C558.721 195.466 558.543 194.883 558.185 194.549C557.828 194.215 557.324 194.048 556.674 194.048C556.17 194.048 555.689 194.121 555.232 194.268C554.775 194.414 554.342 194.587 553.931 194.786L553.483 193.679C553.917 193.456 554.415 193.266 554.977 193.107C555.54 192.949 556.132 192.87 556.753 192.87ZM558.704 197.915L557.236 197.977C556.035 198.023 555.188 198.22 554.696 198.565C554.204 198.911 553.958 199.4 553.958 200.033C553.958 200.584 554.125 200.991 554.459 201.255C554.793 201.519 555.235 201.65 555.786 201.65C556.641 201.65 557.342 201.413 557.886 200.938C558.431 200.464 558.704 199.752 558.704 198.803V197.915ZM567.528 192.853C567.721 192.853 567.924 192.864 568.135 192.888C568.345 192.905 568.533 192.932 568.697 192.967L568.512 194.32C568.354 194.279 568.178 194.247 567.985 194.224C567.792 194.2 567.61 194.188 567.44 194.188C567.053 194.188 566.687 194.268 566.342 194.426C566.002 194.578 565.703 194.801 565.445 195.094C565.187 195.381 564.985 195.729 564.839 196.14C564.692 196.544 564.619 196.995 564.619 197.493V202.661H563.151V193.028H564.364L564.522 194.804H564.584C564.783 194.446 565.023 194.121 565.304 193.828C565.586 193.529 565.911 193.292 566.28 193.116C566.655 192.94 567.071 192.853 567.528 192.853ZM574.225 192.853C575.046 192.853 575.749 193.034 576.335 193.397C576.921 193.761 577.369 194.271 577.679 194.927C577.99 195.577 578.145 196.339 578.145 197.212V198.117H571.492C571.51 199.248 571.791 200.109 572.336 200.701C572.881 201.293 573.648 201.589 574.638 201.589C575.248 201.589 575.787 201.533 576.256 201.422C576.724 201.311 577.211 201.146 577.715 200.93V202.213C577.228 202.43 576.745 202.588 576.264 202.688C575.79 202.787 575.227 202.837 574.577 202.837C573.651 202.837 572.843 202.649 572.151 202.274C571.466 201.894 570.932 201.337 570.552 200.604C570.171 199.872 569.98 198.976 569.98 197.915C569.98 196.878 570.153 195.981 570.499 195.226C570.85 194.464 571.343 193.878 571.975 193.468C572.614 193.058 573.364 192.853 574.225 192.853ZM574.208 194.048C573.428 194.048 572.807 194.303 572.344 194.812C571.882 195.322 571.606 196.034 571.518 196.948H576.616C576.61 196.374 576.519 195.87 576.344 195.437C576.174 194.997 575.913 194.657 575.561 194.417C575.21 194.171 574.759 194.048 574.208 194.048ZM588.411 201.642C588.651 201.642 588.897 201.621 589.149 201.58C589.401 201.539 589.606 201.489 589.764 201.431V202.564C589.594 202.641 589.357 202.705 589.052 202.758C588.754 202.811 588.461 202.837 588.174 202.837C587.664 202.837 587.201 202.749 586.785 202.573C586.369 202.392 586.035 202.087 585.783 201.659C585.537 201.231 585.414 200.64 585.414 199.884V194.171H584.043V193.459L585.423 192.888L586.003 190.796H586.882V193.028H589.703V194.171H586.882V199.84C586.882 200.443 587.019 200.895 587.295 201.193C587.576 201.492 587.948 201.642 588.411 201.642ZM593.175 193.028V202.661H591.716V193.028H593.175ZM592.463 189.425C592.703 189.425 592.908 189.504 593.078 189.662C593.254 189.814 593.342 190.055 593.342 190.383C593.342 190.705 593.254 190.945 593.078 191.104C592.908 191.262 592.703 191.341 592.463 191.341C592.211 191.341 592 191.262 591.83 191.104C591.666 190.945 591.584 190.705 591.584 190.383C591.584 190.055 591.666 189.814 591.83 189.662C592 189.504 592.211 189.425 592.463 189.425ZM600.795 192.853C601.996 192.853 602.954 193.266 603.669 194.092C604.384 194.918 604.741 196.16 604.741 197.818C604.741 198.914 604.577 199.834 604.249 200.578C603.921 201.322 603.458 201.885 602.86 202.266C602.268 202.646 601.568 202.837 600.76 202.837C600.25 202.837 599.802 202.77 599.415 202.635C599.028 202.5 598.697 202.318 598.422 202.09C598.146 201.861 597.918 201.612 597.736 201.343H597.631C597.648 201.571 597.669 201.847 597.692 202.169C597.721 202.491 597.736 202.772 597.736 203.013V206.968H596.268V193.028H597.472L597.666 194.452H597.736C597.924 194.159 598.152 193.893 598.422 193.652C598.691 193.406 599.019 193.213 599.406 193.072C599.799 192.926 600.261 192.853 600.795 192.853ZM600.54 194.083C599.872 194.083 599.333 194.212 598.923 194.47C598.518 194.728 598.222 195.114 598.035 195.63C597.847 196.14 597.748 196.781 597.736 197.555V197.836C597.736 198.65 597.824 199.339 598 199.901C598.181 200.464 598.477 200.892 598.887 201.185C599.303 201.478 599.86 201.624 600.557 201.624C601.155 201.624 601.653 201.463 602.052 201.141C602.45 200.818 602.746 200.37 602.939 199.796C603.138 199.216 603.238 198.551 603.238 197.801C603.238 196.664 603.015 195.762 602.57 195.094C602.131 194.42 601.454 194.083 600.54 194.083ZM613.521 200.024C613.521 200.64 613.366 201.158 613.055 201.58C612.751 201.996 612.311 202.31 611.737 202.521C611.169 202.731 610.489 202.837 609.698 202.837C609.024 202.837 608.441 202.784 607.949 202.679C607.457 202.573 607.026 202.424 606.657 202.23V200.886C607.05 201.079 607.518 201.255 608.063 201.413C608.608 201.571 609.165 201.65 609.733 201.65C610.565 201.65 611.169 201.516 611.544 201.246C611.919 200.977 612.106 200.61 612.106 200.147C612.106 199.884 612.03 199.652 611.878 199.453C611.731 199.248 611.482 199.052 611.131 198.864C610.779 198.671 610.293 198.46 609.672 198.231C609.056 197.997 608.523 197.766 608.072 197.537C607.627 197.303 607.281 197.019 607.035 196.685C606.795 196.351 606.675 195.917 606.675 195.384C606.675 194.569 607.003 193.945 607.659 193.512C608.321 193.072 609.188 192.853 610.26 192.853C610.841 192.853 611.383 192.911 611.886 193.028C612.396 193.14 612.871 193.292 613.31 193.485L612.818 194.654C612.42 194.484 611.995 194.341 611.544 194.224C611.093 194.106 610.633 194.048 610.164 194.048C609.49 194.048 608.971 194.159 608.608 194.382C608.251 194.604 608.072 194.909 608.072 195.296C608.072 195.595 608.154 195.841 608.318 196.034C608.488 196.228 608.758 196.409 609.127 196.579C609.496 196.749 609.982 196.948 610.586 197.177C611.189 197.399 611.711 197.631 612.15 197.871C612.59 198.105 612.927 198.393 613.161 198.732C613.401 199.066 613.521 199.497 613.521 200.024Z" fill="#5E6282"/>
</svg>
