<svg width="308" height="1376" viewBox="0 0 308 1376" fill="none" xmlns="http://www.w3.org/2000/svg">
<g filter="url(#filter0_d_19_372)">
<path fill-rule="evenodd" clip-rule="evenodd" d="M229.989 1228.96C245.904 1228.96 258.805 1216.06 258.805 1200.15C258.805 1184.23 245.904 1171.33 229.989 1171.33C214.075 1171.33 201.173 1184.23 201.173 1200.15C201.173 1216.06 214.075 1228.96 229.989 1228.96Z" fill="white"/>
</g>
<path d="M240.532 2.50865C239.695 2.8117 238.804 3.01258 237.875 3.11011C238.831 2.63869 239.56 1.8979 239.903 1.00499C239.012 1.4439 238.028 1.75392 236.98 1.92693C236.133 1.18265 234.927 0.72168 233.612 0.72168C231.059 0.72168 229.004 2.43318 229.004 4.53133C229.004 4.83322 229.035 5.1235 229.111 5.39985C225.277 5.24542 221.886 3.72783 219.607 1.41603C219.209 1.98614 218.976 2.6387 218.976 3.34117C218.976 4.66021 219.798 5.82946 221.024 6.5064C220.283 6.49479 219.556 6.31714 218.941 6.0373C218.941 6.04892 218.941 6.06401 218.941 6.0791C218.941 7.92994 220.539 9.46726 222.635 9.82141C222.26 9.90617 221.85 9.94681 221.426 9.94681C221.131 9.94681 220.833 9.93287 220.553 9.88178C221.15 11.3901 222.846 12.499 224.861 12.535C223.293 13.5486 221.301 14.1594 219.145 14.1594C218.766 14.1594 218.404 14.1454 218.041 14.1071C220.084 15.1951 222.504 15.8163 225.114 15.8163C233.599 15.8163 238.238 10.0107 238.238 4.97836C238.238 4.81 238.231 4.64744 238.221 4.48604C239.136 3.9496 239.905 3.27964 240.532 2.50865Z" fill="#080809"/>
<g filter="url(#filter1_d_19_372)">
<path fill-rule="evenodd" clip-rule="evenodd" d="M38.819 1226.15C54.7337 1226.15 67.6351 1213.25 67.6351 1197.34C67.6351 1181.42 54.7337 1168.52 38.819 1168.52C22.9043 1168.52 10.0029 1181.42 10.0029 1197.34C10.0029 1213.25 22.9043 1226.15 38.819 1226.15Z" fill="white"/>
</g>
<path fill-rule="evenodd" clip-rule="evenodd" d="M42.4855 1194.16C42.0356 1194.02 41.5182 1193.93 41.0458 1193.93C40.4609 1193.93 39.2012 1194.33 39.2012 1195.11V1196.99H42.193V1200.14H39.2012V1208.85H36.1869V1200.14H34.7022V1196.99H36.1869V1195.4C36.1869 1193 37.2217 1191.01 39.7186 1191.01C40.5734 1191.01 42.1031 1191.06 42.9354 1191.37L42.4855 1194.16Z" fill="#080809"/>
<g filter="url(#filter2_d_19_372)">
<path fill-rule="evenodd" clip-rule="evenodd" d="M134.404 1231.77C151.871 1231.77 166.032 1217.61 166.032 1200.15C166.032 1182.68 151.871 1168.52 134.404 1168.52C116.937 1168.52 102.777 1182.68 102.777 1200.15C102.777 1217.61 116.937 1231.77 134.404 1231.77Z" fill="url(#paint0_angular_19_372)"/>
</g>
<g clip-path="url(#clip0_19_372)">
<path d="M143.058 1188.2H127.156C125.34 1188.2 123.862 1189.68 123.862 1191.49V1207.39C123.862 1209.21 125.34 1210.69 127.156 1210.69H143.058C144.875 1210.69 146.352 1209.21 146.352 1207.39V1191.49C146.352 1189.68 144.875 1188.2 143.058 1188.2ZM145.034 1207.39C145.034 1208.48 144.148 1209.37 143.058 1209.37H127.156C126.066 1209.37 125.179 1208.48 125.179 1207.39V1191.49C125.179 1190.4 126.066 1189.52 127.156 1189.52H143.058C144.148 1189.52 145.034 1190.4 145.034 1191.49V1207.39Z" fill="white"/>
<path d="M142.355 1190.88C141.628 1190.88 141.037 1191.47 141.037 1192.2C141.037 1192.92 141.628 1193.51 142.355 1193.51C143.081 1193.51 143.673 1192.92 143.673 1192.2C143.673 1191.47 143.081 1190.88 142.355 1190.88Z" fill="white"/>
<path d="M135.107 1193.51C131.837 1193.51 129.177 1196.17 129.177 1199.44C129.177 1202.71 131.837 1205.37 135.107 1205.37C138.377 1205.37 141.037 1202.71 141.037 1199.44C141.037 1196.17 138.377 1193.51 135.107 1193.51ZM135.107 1204.06C132.564 1204.06 130.495 1201.99 130.495 1199.44C130.495 1196.9 132.564 1194.83 135.107 1194.83C137.65 1194.83 139.719 1196.9 139.719 1199.44C139.719 1201.99 137.65 1204.06 135.107 1204.06Z" fill="white"/>
</g>
<path d="M23.2939 1281.05C23.2939 1282.65 23.0009 1284 22.4149 1285.08C21.829 1286.15 20.9794 1286.96 19.8661 1287.51C18.7593 1288.05 17.4149 1288.32 15.8329 1288.32H11.956V1274.04H16.2626C17.7144 1274.04 18.9644 1274.31 20.0126 1274.84C21.0608 1275.37 21.8681 1276.16 22.4345 1277.2C23.0074 1278.23 23.2939 1279.52 23.2939 1281.05ZM21.5458 1281.1C21.5458 1279.82 21.331 1278.76 20.9013 1277.93C20.4781 1277.1 19.8531 1276.48 19.0263 1276.08C18.206 1275.67 17.2001 1275.46 16.0087 1275.46H13.6161V1286.9H15.6376C17.6037 1286.9 19.0784 1286.41 20.0614 1285.44C21.051 1284.47 21.5458 1283.03 21.5458 1281.1ZM27.9446 1277.62V1288.32H26.3235V1277.62H27.9446ZM27.1536 1273.61C27.4205 1273.61 27.6484 1273.7 27.8372 1273.88C28.0325 1274.05 28.1302 1274.31 28.1302 1274.68C28.1302 1275.04 28.0325 1275.3 27.8372 1275.48C27.6484 1275.66 27.4205 1275.74 27.1536 1275.74C26.8737 1275.74 26.6393 1275.66 26.4505 1275.48C26.2682 1275.3 26.1771 1275.04 26.1771 1274.68C26.1771 1274.31 26.2682 1274.05 26.4505 1273.88C26.6393 1273.7 26.8737 1273.61 27.1536 1273.61ZM38.406 1285.39C38.406 1286.08 38.2334 1286.65 37.8884 1287.12C37.5498 1287.58 37.0616 1287.93 36.4235 1288.17C35.792 1288.4 35.0368 1288.52 34.1579 1288.52C33.4092 1288.52 32.7614 1288.46 32.2146 1288.34C31.6677 1288.22 31.1892 1288.06 30.779 1287.84V1286.35C31.2152 1286.56 31.736 1286.76 32.3415 1286.93C32.947 1287.11 33.5655 1287.2 34.197 1287.2C35.1215 1287.2 35.792 1287.05 36.2087 1286.75C36.6254 1286.45 36.8337 1286.04 36.8337 1285.53C36.8337 1285.24 36.7491 1284.98 36.5798 1284.76C36.417 1284.53 36.1403 1284.31 35.7497 1284.1C35.3591 1283.89 34.8187 1283.65 34.1286 1283.4C33.445 1283.14 32.8526 1282.88 32.3513 1282.63C31.8565 1282.37 31.4724 1282.05 31.1989 1281.68C30.932 1281.31 30.7985 1280.83 30.7985 1280.24C30.7985 1279.33 31.1631 1278.64 31.8923 1278.16C32.628 1277.67 33.5915 1277.42 34.7829 1277.42C35.4274 1277.42 36.0297 1277.49 36.5896 1277.62C37.156 1277.74 37.6833 1277.91 38.1716 1278.13L37.6247 1279.42C37.182 1279.24 36.71 1279.08 36.2087 1278.95C35.7074 1278.82 35.1963 1278.75 34.6755 1278.75C33.9268 1278.75 33.3506 1278.87 32.947 1279.12C32.5498 1279.37 32.3513 1279.71 32.3513 1280.14C32.3513 1280.47 32.4424 1280.74 32.6247 1280.96C32.8135 1281.17 33.113 1281.37 33.5232 1281.56C33.9333 1281.75 34.4737 1281.97 35.1442 1282.23C35.8148 1282.47 36.3942 1282.73 36.8825 1283C37.3708 1283.26 37.7452 1283.58 38.0056 1283.96C38.2725 1284.33 38.406 1284.81 38.406 1285.39ZM45.4005 1288.52C44.437 1288.52 43.5873 1288.32 42.8517 1287.92C42.116 1287.52 41.5431 1286.92 41.1329 1286.1C40.7228 1285.29 40.5177 1284.27 40.5177 1283.03C40.5177 1281.73 40.7325 1280.67 41.1622 1279.85C41.5984 1279.03 42.1974 1278.42 42.9591 1278.02C43.7208 1277.62 44.5867 1277.42 45.5567 1277.42C46.0906 1277.42 46.6049 1277.48 47.0997 1277.59C47.601 1277.69 48.0112 1277.83 48.3302 1277.99L47.8419 1279.35C47.5164 1279.22 47.1388 1279.1 46.7091 1279C46.2859 1278.89 45.8888 1278.84 45.5177 1278.84C44.7755 1278.84 44.157 1279 43.6622 1279.32C43.1739 1279.64 42.8061 1280.11 42.5587 1280.72C42.3178 1281.34 42.1974 1282.1 42.1974 1283.01C42.1974 1283.87 42.3146 1284.61 42.5489 1285.23C42.7898 1285.84 43.1446 1286.31 43.6134 1286.63C44.0886 1286.95 44.6811 1287.11 45.3907 1287.11C45.9571 1287.11 46.4682 1287.05 46.9239 1286.93C47.3797 1286.81 47.7931 1286.67 48.1642 1286.5V1287.95C47.8061 1288.13 47.4057 1288.27 46.963 1288.37C46.5268 1288.47 46.006 1288.52 45.4005 1288.52ZM60.0317 1282.95C60.0317 1283.83 59.9178 1284.61 59.6899 1285.3C59.4621 1285.99 59.1333 1286.58 58.7036 1287.05C58.2739 1287.53 57.7531 1287.89 57.1411 1288.15C56.5357 1288.39 55.8488 1288.52 55.0806 1288.52C54.3644 1288.52 53.7069 1288.39 53.1079 1288.15C52.5155 1287.89 52.0011 1287.53 51.5649 1287.05C51.1353 1286.58 50.8 1285.99 50.5591 1285.3C50.3247 1284.61 50.2075 1283.83 50.2075 1282.95C50.2075 1281.78 50.4061 1280.78 50.8032 1279.96C51.2004 1279.14 51.7668 1278.51 52.5024 1278.08C53.2446 1277.64 54.1268 1277.42 55.1489 1277.42C56.1255 1277.42 56.9784 1277.64 57.7075 1278.08C58.4432 1278.51 59.0129 1279.14 59.4165 1279.97C59.8267 1280.79 60.0317 1281.78 60.0317 1282.95ZM51.8872 1282.95C51.8872 1283.81 52.0011 1284.56 52.229 1285.19C52.4569 1285.82 52.8084 1286.31 53.2837 1286.65C53.759 1287 54.3709 1287.17 55.1196 1287.17C55.8618 1287.17 56.4705 1287 56.9458 1286.65C57.4276 1286.31 57.7824 1285.82 58.0103 1285.19C58.2381 1284.56 58.3521 1283.81 58.3521 1282.95C58.3521 1282.1 58.2381 1281.36 58.0103 1280.74C57.7824 1280.12 57.4308 1279.64 56.9556 1279.3C56.4803 1278.96 55.8651 1278.79 55.1099 1278.79C53.9966 1278.79 53.1795 1279.16 52.6587 1279.89C52.1444 1280.63 51.8872 1281.65 51.8872 1282.95ZM65.288 1288.32L61.2255 1277.62H62.9638L65.3173 1284.09C65.4801 1284.54 65.6461 1285.02 65.8153 1285.56C65.9846 1286.09 66.1018 1286.52 66.1669 1286.85H66.2353C66.3134 1286.52 66.4436 1286.09 66.6259 1285.56C66.8082 1285.02 66.9742 1284.53 67.1239 1284.09L69.4774 1277.62H71.2157L67.1435 1288.32H65.288ZM77.1556 1277.42C78.067 1277.42 78.8483 1277.62 79.4993 1278.03C80.1504 1278.43 80.6484 1279 80.9935 1279.73C81.3385 1280.45 81.511 1281.3 81.511 1282.27V1283.27H74.1185C74.138 1284.53 74.4505 1285.49 75.056 1286.14C75.6614 1286.8 76.5143 1287.13 77.6146 1287.13C78.2916 1287.13 78.8906 1287.07 79.4114 1286.94C79.9323 1286.82 80.4726 1286.64 81.0325 1286.4V1287.82C80.4922 1288.06 79.9551 1288.24 79.4212 1288.35C78.8939 1288.46 78.2689 1288.52 77.5462 1288.52C76.5176 1288.52 75.6191 1288.31 74.8509 1287.89C74.0892 1287.47 73.4967 1286.85 73.0735 1286.04C72.6504 1285.22 72.4388 1284.23 72.4388 1283.05C72.4388 1281.9 72.6308 1280.9 73.0149 1280.06C73.4056 1279.21 73.9524 1278.56 74.6556 1278.11C75.3652 1277.65 76.1985 1277.42 77.1556 1277.42ZM77.136 1278.75C76.2702 1278.75 75.5801 1279.03 75.0657 1279.6C74.5514 1280.17 74.2454 1280.96 74.1478 1281.97H79.8118C79.8053 1281.34 79.7044 1280.78 79.5091 1280.29C79.3203 1279.81 79.0306 1279.43 78.6399 1279.16C78.2493 1278.89 77.748 1278.75 77.136 1278.75ZM89.2282 1277.42C89.4431 1277.42 89.6677 1277.44 89.9021 1277.46C90.1364 1277.48 90.3448 1277.51 90.5271 1277.55L90.322 1279.05C90.1462 1279.01 89.9509 1278.97 89.736 1278.95C89.5212 1278.92 89.3194 1278.91 89.1306 1278.91C88.7009 1278.91 88.294 1279 87.9099 1279.17C87.5323 1279.34 87.2002 1279.59 86.9138 1279.91C86.6273 1280.23 86.4027 1280.62 86.2399 1281.08C86.0772 1281.52 85.9958 1282.03 85.9958 1282.58V1288.32H84.3649V1277.62H85.7126L85.8884 1279.59H85.9567C86.1781 1279.19 86.445 1278.83 86.7575 1278.51C87.07 1278.17 87.4314 1277.91 87.8415 1277.72C88.2582 1277.52 88.7204 1277.42 89.2282 1277.42ZM107.172 1282.95C107.172 1283.83 107.058 1284.61 106.831 1285.3C106.603 1285.99 106.274 1286.58 105.844 1287.05C105.415 1287.53 104.894 1287.89 104.282 1288.15C103.676 1288.39 102.989 1288.52 102.221 1288.52C101.505 1288.52 100.848 1288.39 100.249 1288.15C99.6561 1287.89 99.1418 1287.53 98.7056 1287.05C98.2759 1286.58 97.9406 1285.99 97.6997 1285.3C97.4653 1284.61 97.3482 1283.83 97.3482 1282.95C97.3482 1281.78 97.5467 1280.78 97.9439 1279.96C98.341 1279.14 98.9074 1278.51 99.6431 1278.08C100.385 1277.64 101.267 1277.42 102.29 1277.42C103.266 1277.42 104.119 1277.64 104.848 1278.08C105.584 1278.51 106.153 1279.14 106.557 1279.97C106.967 1280.79 107.172 1281.78 107.172 1282.95ZM99.0278 1282.95C99.0278 1283.81 99.1418 1284.56 99.3696 1285.19C99.5975 1285.82 99.9491 1286.31 100.424 1286.65C100.9 1287 101.512 1287.17 102.26 1287.17C103.002 1287.17 103.611 1287 104.086 1286.65C104.568 1286.31 104.923 1285.82 105.151 1285.19C105.379 1284.56 105.493 1283.81 105.493 1282.95C105.493 1282.1 105.379 1281.36 105.151 1280.74C104.923 1280.12 104.571 1279.64 104.096 1279.3C103.621 1278.96 103.006 1278.79 102.25 1278.79C101.137 1278.79 100.32 1279.16 99.7993 1279.89C99.285 1280.63 99.0278 1281.65 99.0278 1282.95ZM118.913 1277.62V1288.32H117.585L117.35 1286.82H117.263C117.041 1287.19 116.755 1287.5 116.403 1287.75C116.052 1288.01 115.655 1288.2 115.212 1288.32C114.776 1288.45 114.31 1288.52 113.815 1288.52C112.969 1288.52 112.259 1288.38 111.686 1288.11C111.114 1287.83 110.681 1287.41 110.388 1286.84C110.101 1286.26 109.958 1285.53 109.958 1284.63V1277.62H111.599V1284.51C111.599 1285.4 111.8 1286.07 112.204 1286.51C112.608 1286.95 113.223 1287.17 114.05 1287.17C114.844 1287.17 115.475 1287.02 115.944 1286.72C116.42 1286.42 116.761 1285.98 116.97 1285.4C117.178 1284.82 117.282 1284.1 117.282 1283.25V1277.62H118.913ZM127.304 1277.42C127.519 1277.42 127.743 1277.44 127.978 1277.46C128.212 1277.48 128.421 1277.51 128.603 1277.55L128.398 1279.05C128.222 1279.01 128.027 1278.97 127.812 1278.95C127.597 1278.92 127.395 1278.91 127.206 1278.91C126.777 1278.91 126.37 1279 125.986 1279.17C125.608 1279.34 125.276 1279.59 124.99 1279.91C124.703 1280.23 124.478 1280.62 124.316 1281.08C124.153 1281.52 124.072 1282.03 124.072 1282.58V1288.32H122.441V1277.62H123.788L123.964 1279.59H124.033C124.254 1279.19 124.521 1278.83 124.833 1278.51C125.146 1278.17 125.507 1277.91 125.917 1277.72C126.334 1277.52 126.796 1277.42 127.304 1277.42ZM140.024 1277.44C141.3 1277.44 142.247 1277.73 142.865 1278.3C143.484 1278.87 143.793 1279.79 143.793 1281.05V1288.32H142.611L142.299 1286.74H142.221C141.921 1287.13 141.609 1287.46 141.283 1287.73C140.958 1287.99 140.58 1288.18 140.15 1288.32C139.727 1288.45 139.206 1288.52 138.588 1288.52C137.937 1288.52 137.358 1288.4 136.85 1288.17C136.348 1287.95 135.951 1287.6 135.658 1287.14C135.372 1286.68 135.229 1286.09 135.229 1285.38C135.229 1284.31 135.652 1283.49 136.498 1282.92C137.345 1282.35 138.634 1282.04 140.365 1281.98L142.211 1281.91V1281.25C142.211 1280.33 142.012 1279.68 141.615 1279.31C141.218 1278.94 140.658 1278.75 139.936 1278.75C139.376 1278.75 138.842 1278.83 138.334 1279C137.826 1279.16 137.345 1279.35 136.889 1279.57L136.391 1278.34C136.873 1278.09 137.426 1277.88 138.051 1277.71C138.676 1277.53 139.333 1277.44 140.024 1277.44ZM142.192 1283.05L140.561 1283.12C139.226 1283.17 138.285 1283.39 137.738 1283.77C137.192 1284.15 136.918 1284.7 136.918 1285.4C136.918 1286.01 137.104 1286.47 137.475 1286.76C137.846 1287.05 138.337 1287.2 138.949 1287.2C139.9 1287.2 140.678 1286.93 141.283 1286.41C141.889 1285.88 142.192 1285.09 142.192 1284.03V1283.05ZM152.262 1277.42C153.597 1277.42 154.661 1277.88 155.456 1278.8C156.25 1279.72 156.647 1281.1 156.647 1282.94C156.647 1284.16 156.465 1285.18 156.1 1286.01C155.736 1286.83 155.221 1287.46 154.557 1287.88C153.9 1288.31 153.122 1288.52 152.223 1288.52C151.657 1288.52 151.159 1288.44 150.729 1288.29C150.299 1288.14 149.931 1287.94 149.625 1287.69C149.319 1287.43 149.066 1287.16 148.864 1286.86H148.747C148.766 1287.11 148.789 1287.42 148.815 1287.77C148.847 1288.13 148.864 1288.44 148.864 1288.71V1293.11H147.233V1277.62H148.571L148.786 1279.2H148.864C149.072 1278.87 149.326 1278.58 149.625 1278.31C149.925 1278.04 150.29 1277.82 150.719 1277.67C151.155 1277.5 151.67 1277.42 152.262 1277.42ZM151.979 1278.79C151.237 1278.79 150.638 1278.93 150.182 1279.22C149.733 1279.51 149.404 1279.94 149.196 1280.51C148.987 1281.08 148.877 1281.79 148.864 1282.65V1282.96C148.864 1283.86 148.961 1284.63 149.157 1285.25C149.359 1285.88 149.687 1286.36 150.143 1286.68C150.605 1287.01 151.224 1287.17 151.999 1287.17C152.663 1287.17 153.216 1286.99 153.659 1286.63C154.101 1286.27 154.43 1285.78 154.645 1285.14C154.866 1284.49 154.977 1283.75 154.977 1282.92C154.977 1281.66 154.73 1280.66 154.235 1279.91C153.747 1279.16 152.995 1278.79 151.979 1278.79ZM164.608 1277.42C165.943 1277.42 167.007 1277.88 167.802 1278.8C168.596 1279.72 168.993 1281.1 168.993 1282.94C168.993 1284.16 168.811 1285.18 168.446 1286.01C168.082 1286.83 167.567 1287.46 166.903 1287.88C166.246 1288.31 165.468 1288.52 164.569 1288.52C164.003 1288.52 163.505 1288.44 163.075 1288.29C162.645 1288.14 162.278 1287.94 161.972 1287.69C161.666 1287.43 161.412 1287.16 161.21 1286.86H161.093C161.112 1287.11 161.135 1287.42 161.161 1287.77C161.194 1288.13 161.21 1288.44 161.21 1288.71V1293.11H159.579V1277.62H160.917L161.132 1279.2H161.21C161.418 1278.87 161.672 1278.58 161.972 1278.31C162.271 1278.04 162.636 1277.82 163.065 1277.67C163.502 1277.5 164.016 1277.42 164.608 1277.42ZM164.325 1278.79C163.583 1278.79 162.984 1278.93 162.528 1279.22C162.079 1279.51 161.75 1279.94 161.542 1280.51C161.334 1281.08 161.223 1281.79 161.21 1282.65V1282.96C161.21 1283.86 161.308 1284.63 161.503 1285.25C161.705 1285.88 162.033 1286.36 162.489 1286.68C162.951 1287.01 163.57 1287.17 164.345 1287.17C165.009 1287.17 165.562 1286.99 166.005 1286.63C166.447 1286.27 166.776 1285.78 166.991 1285.14C167.212 1284.49 167.323 1283.75 167.323 1282.92C167.323 1281.66 167.076 1280.66 166.581 1279.91C166.093 1279.16 165.341 1278.79 164.325 1278.79Z" fill="#5E6282"/>
<rect x="7.19153" y="1325.95" width="150.406" height="49.1982" rx="17.5" fill="#080809"/>
<g clip-path="url(#clip1_19_372)">
<path d="M47.2633 1349.85L33.1455 1363.45C32.4844 1362.99 32.0919 1362.24 32.0988 1361.44V1338.26C32.0919 1337.46 32.4844 1336.71 33.1455 1336.26L47.2633 1349.85Z" fill="#2196F3"/>
<path d="M52.2033 1345.1L47.2633 1349.85L33.1455 1336.26C33.1987 1336.22 33.2541 1336.18 33.3114 1336.14C34.0576 1335.69 34.9896 1335.68 35.7495 1336.1L52.2033 1345.1Z" fill="#4CAF50"/>
<path d="M58.19 1349.85C58.1992 1350.76 57.708 1351.59 56.9135 1352.02L52.2033 1354.6L47.2634 1349.85L52.2033 1345.1L56.9135 1347.68C57.708 1348.11 58.1992 1348.95 58.19 1349.85Z" fill="#F0BB1F"/>
<path d="M52.2033 1354.6L35.7495 1363.6C34.9879 1364.02 34.0594 1364.01 33.3114 1363.56C33.2541 1363.53 33.1987 1363.49 33.1455 1363.45L47.2634 1349.85L52.2033 1354.6Z" fill="#F15A2B"/>
</g>
<path d="M74.6971 1342.65H70.75V1344.23H72.8529C72.5718 1344.98 71.8858 1345.44 70.84 1345.44C69.3106 1345.44 68.366 1344.46 68.366 1343.13C68.366 1341.74 69.3556 1340.76 70.6826 1340.76C71.5709 1340.76 72.2794 1341.17 72.6055 1341.69L74.1349 1340.81C73.4714 1339.75 72.2007 1339.01 70.6938 1339.01C68.3773 1339.01 66.5668 1340.83 66.5668 1343.11C66.5668 1345.37 68.3435 1347.2 70.8175 1347.2C73.0216 1347.2 74.6971 1345.73 74.6971 1343.33V1342.65Z" fill="white"/>
<path d="M76.9485 1345.31V1343.91H79.7598V1342.2H76.9485V1340.9H80.0409V1339.17H75.1492V1347.04H80.0972V1345.31H76.9485Z" fill="white"/>
<path d="M85.8353 1339.17H79.9878V1340.9H82.0119V1347.04H83.8112V1340.9H85.8353V1339.17Z" fill="white"/>
<path d="M88.3098 1339.17V1347.04H90.109V1339.17H88.3098Z" fill="white"/>
<path d="M96.1845 1339.17H90.337V1340.9H92.3611V1347.04H94.1604V1340.9H96.1845V1339.17Z" fill="white"/>
<path d="M102.415 1347.2C104.675 1347.2 106.508 1345.42 106.508 1343.1C106.508 1340.79 104.675 1339.01 102.415 1339.01C100.155 1339.01 98.3216 1340.79 98.3216 1343.1C98.3216 1345.42 100.155 1347.2 102.415 1347.2ZM102.415 1345.44C101.133 1345.44 100.121 1344.51 100.121 1343.1C100.121 1341.7 101.133 1340.76 102.415 1340.76C103.697 1340.76 104.709 1341.7 104.709 1343.1C104.709 1344.51 103.697 1345.44 102.415 1345.44Z" fill="white"/>
<path d="M111.345 1339.17V1343.44L108.308 1339.17H106.959V1347.04H108.758V1342.77L111.794 1347.04H113.144V1339.17H111.345Z" fill="white"/>
<path d="M74.6971 1356.02V1356.33C74.6971 1357.31 74.3485 1358.14 73.6513 1358.81C72.9541 1359.48 72.0357 1359.81 70.8962 1359.81C69.6967 1359.81 68.7071 1359.42 67.9275 1358.64C67.1478 1357.86 66.7579 1356.89 66.7579 1355.75C66.7579 1354.61 67.144 1353.65 67.9162 1352.87C68.6884 1352.09 69.6667 1351.69 70.8512 1351.69C71.5709 1351.69 72.2307 1351.87 72.8304 1352.21C73.4377 1352.56 73.9062 1353.02 74.2361 1353.59L73.7075 1353.91C73.4452 1353.41 73.0553 1353.02 72.538 1352.72C72.0282 1352.42 71.466 1352.27 70.8512 1352.27C69.8317 1352.27 68.992 1352.6 68.3323 1353.28C67.6801 1353.95 67.3539 1354.77 67.3539 1355.75C67.3539 1356.74 67.6838 1357.56 68.3435 1358.24C69.0033 1358.91 69.8542 1359.24 70.8962 1359.24C71.8183 1359.24 72.5643 1358.99 73.134 1358.49C73.7038 1357.98 74.0224 1357.35 74.0899 1356.59H70.75V1356.02H74.6971Z" fill="white"/>
<path d="M82.6794 1358.63C81.8922 1359.42 80.9326 1359.81 79.8006 1359.81C78.6685 1359.81 77.7089 1359.42 76.9218 1358.63C76.1346 1357.84 75.741 1356.88 75.741 1355.75C75.741 1354.63 76.1346 1353.67 76.9218 1352.89C77.7089 1352.09 78.6685 1351.69 79.8006 1351.69C80.9326 1351.69 81.8922 1352.09 82.6794 1352.89C83.4665 1353.67 83.8601 1354.63 83.8601 1355.75C83.8601 1356.88 83.4665 1357.84 82.6794 1358.63ZM77.3378 1358.23C78.0126 1358.9 78.8335 1359.24 79.8006 1359.24C80.7677 1359.24 81.5848 1358.9 82.252 1358.23C82.9268 1357.55 83.2641 1356.72 83.2641 1355.75C83.2641 1354.79 82.9268 1353.97 82.252 1353.29C81.5848 1352.61 80.7677 1352.27 79.8006 1352.27C78.8335 1352.27 78.0126 1352.61 77.3378 1353.29C76.6706 1353.97 76.337 1354.79 76.337 1355.75C76.337 1356.72 76.6706 1357.55 77.3378 1358.23Z" fill="white"/>
<path d="M91.8601 1358.63C91.0729 1359.42 90.1133 1359.81 88.9813 1359.81C87.8493 1359.81 86.8897 1359.42 86.1025 1358.63C85.3153 1357.84 84.9218 1356.88 84.9218 1355.75C84.9218 1354.63 85.3153 1353.67 86.1025 1352.89C86.8897 1352.09 87.8493 1351.69 88.9813 1351.69C90.1133 1351.69 91.0729 1352.09 91.8601 1352.89C92.6473 1353.67 93.0409 1354.63 93.0409 1355.75C93.0409 1356.88 92.6473 1357.84 91.8601 1358.63ZM86.5186 1358.23C87.1933 1358.9 88.0142 1359.24 88.9813 1359.24C89.9484 1359.24 90.7656 1358.9 91.4328 1358.23C92.1075 1357.55 92.4449 1356.72 92.4449 1355.75C92.4449 1354.79 92.1075 1353.97 91.4328 1353.29C90.7656 1352.61 89.9484 1352.27 88.9813 1352.27C88.0142 1352.27 87.1933 1352.61 86.5186 1353.29C85.8514 1353.97 85.5178 1354.79 85.5178 1355.75C85.5178 1356.72 85.8514 1357.55 86.5186 1358.23Z" fill="white"/>
<path d="M102.042 1356.02V1356.33C102.042 1357.31 101.693 1358.14 100.996 1358.81C100.299 1359.48 99.3803 1359.81 98.2408 1359.81C97.0413 1359.81 96.0517 1359.42 95.272 1358.64C94.4923 1357.86 94.1025 1356.89 94.1025 1355.75C94.1025 1354.61 94.4886 1353.65 95.2608 1352.87C96.0329 1352.09 97.0113 1351.69 98.1958 1351.69C98.9155 1351.69 99.5752 1351.87 100.175 1352.21C100.782 1352.56 101.251 1353.02 101.581 1353.59L101.052 1353.91C100.79 1353.41 100.4 1353.02 99.8826 1352.72C99.3728 1352.42 98.8105 1352.27 98.1958 1352.27C97.1762 1352.27 96.3366 1352.6 95.6768 1353.28C95.0246 1353.95 94.6985 1354.77 94.6985 1355.75C94.6985 1356.74 95.0284 1357.56 95.6881 1358.24C96.3478 1358.91 97.1987 1359.24 98.2408 1359.24C99.1629 1359.24 99.9088 1358.99 100.479 1358.49C101.048 1357.98 101.367 1357.35 101.434 1356.59H98.0946V1356.02H102.042Z" fill="white"/>
<path d="M104.131 1359.13H107.842V1359.69H103.535V1351.82H104.131V1359.13Z" fill="white"/>
<path d="M109.677 1359.13H113.613V1359.69H109.081V1351.82H113.557V1352.38H109.677V1355.44H113.276V1356H109.677V1359.13Z" fill="white"/>
<path d="M120.752 1351.82C121.456 1351.82 122.041 1352.05 122.506 1352.51C122.971 1352.98 123.203 1353.56 123.203 1354.26C123.203 1354.96 122.971 1355.54 122.506 1356C122.041 1356.46 121.456 1356.69 120.752 1356.69H118.671V1359.69H118.075V1351.82H120.752ZM120.752 1356.12C121.291 1356.12 121.734 1355.95 122.079 1355.6C122.431 1355.24 122.607 1354.8 122.607 1354.26C122.607 1353.71 122.431 1353.26 122.079 1352.91C121.734 1352.56 121.291 1352.38 120.752 1352.38H118.671V1356.12H120.752Z" fill="white"/>
<path d="M125.271 1359.13H128.982V1359.69H124.675V1351.82H125.271V1359.13Z" fill="white"/>
<path d="M135.737 1359.69L134.973 1357.69H131.025L130.261 1359.69H129.631L132.69 1351.82H133.319L136.367 1359.69H135.737ZM131.25 1357.13H134.759L133.005 1352.55L131.25 1357.13Z" fill="white"/>
<path d="M141.968 1351.82L139.1 1356.45V1359.69H138.504V1356.45L135.637 1351.82H136.311L138.808 1355.88L141.293 1351.82H141.968Z" fill="white"/>
<rect x="167.437" y="1325.95" width="140.566" height="49.1982" rx="17.5" fill="#080809"/>
<path d="M198.066 1359.69C194.718 1359.67 191.949 1352.84 191.949 1349.36C191.949 1343.67 196.214 1342.43 197.857 1342.43C198.598 1342.43 199.388 1342.72 200.086 1342.98C200.574 1343.16 201.078 1343.34 201.359 1343.34C201.527 1343.34 201.922 1343.18 202.272 1343.05C203.017 1342.75 203.944 1342.38 205.024 1342.38C205.026 1342.38 205.028 1342.38 205.03 1342.38C205.837 1342.38 208.281 1342.56 209.751 1344.76L210.095 1345.28L209.6 1345.66C208.892 1346.19 207.6 1347.16 207.6 1349.09C207.6 1351.38 209.063 1352.26 209.766 1352.68C210.076 1352.87 210.397 1353.06 210.397 1353.48C210.397 1353.75 208.204 1359.65 205.019 1359.65C204.24 1359.65 203.689 1359.42 203.204 1359.21C202.712 1359 202.288 1358.82 201.587 1358.82C201.232 1358.82 200.783 1358.99 200.307 1359.17C199.658 1359.41 198.922 1359.69 198.087 1359.69H198.066Z" fill="white"/>
<path d="M205.361 1337.2C205.444 1340.19 203.306 1342.26 201.17 1342.13C200.818 1339.75 203.305 1337.2 205.361 1337.2Z" fill="white"/>
<path d="M222.3 1344.23H223.776L221.769 1338.32H220.048L218.041 1344.23H219.517L219.812 1343.3H222.005L222.3 1344.23ZM220.217 1342.03L220.909 1339.87L221.6 1342.03H220.217Z" fill="white"/>
<path d="M226.763 1340.01L225.886 1342.68L225.009 1340.01H223.609L225.169 1344.23H226.603L228.163 1340.01H226.763Z" fill="white"/>
<path d="M231.524 1340.01V1340.41C231.246 1340.09 230.833 1339.89 230.268 1339.89C229.163 1339.89 228.252 1340.86 228.252 1342.12C228.252 1343.38 229.163 1344.35 230.268 1344.35C230.833 1344.35 231.246 1344.15 231.524 1343.83V1344.23H232.789V1340.01H231.524ZM230.521 1343.15C229.939 1343.15 229.517 1342.75 229.517 1342.12C229.517 1341.49 229.939 1341.09 230.521 1341.09C231.102 1341.09 231.524 1341.49 231.524 1342.12C231.524 1342.75 231.102 1343.15 230.521 1343.15Z" fill="white"/>
<path d="M233.717 1344.23H234.983V1338.07H233.717V1344.23Z" fill="white"/>
<path d="M236.541 1339.64C236.954 1339.64 237.3 1339.29 237.3 1338.88C237.3 1338.47 236.954 1338.12 236.541 1338.12C236.128 1338.12 235.782 1338.47 235.782 1338.88C235.782 1339.29 236.128 1339.64 236.541 1339.64ZM235.908 1344.23H237.173V1340.01H235.908V1344.23Z" fill="white"/>
<path d="M240.621 1339.89C240.056 1339.89 239.643 1340.09 239.364 1340.41V1338.32H238.099V1344.23H239.364V1343.83C239.643 1344.15 240.056 1344.35 240.621 1344.35C241.726 1344.35 242.637 1343.38 242.637 1342.12C242.637 1340.86 241.726 1339.89 240.621 1339.89ZM240.368 1343.15C239.786 1343.15 239.364 1342.75 239.364 1342.12C239.364 1341.49 239.786 1341.09 240.368 1341.09C240.95 1341.09 241.372 1341.49 241.372 1342.12C241.372 1342.75 240.95 1343.15 240.368 1343.15Z" fill="white"/>
<path d="M243.354 1344.23H244.619V1338.07H243.354V1344.23Z" fill="white"/>
<path d="M246.675 1342.62H249.669C249.703 1342.46 249.72 1342.3 249.72 1342.12C249.72 1340.85 248.809 1339.89 247.577 1339.89C246.245 1339.89 245.334 1340.86 245.334 1342.12C245.334 1343.38 246.228 1344.35 247.67 1344.35C248.471 1344.35 249.095 1344.05 249.509 1343.48L248.497 1342.89C248.328 1343.08 248.033 1343.22 247.687 1343.22C247.223 1343.22 246.835 1343.06 246.675 1342.62ZM246.65 1341.68C246.768 1341.25 247.088 1341.01 247.569 1341.01C247.948 1341.01 248.328 1341.19 248.463 1341.68H246.65Z" fill="white"/>
<path d="M254.57 1344.35C255.81 1344.35 256.805 1343.38 256.805 1342.12C256.805 1340.86 255.81 1339.89 254.57 1339.89C253.33 1339.89 252.335 1340.86 252.335 1342.12C252.335 1343.38 253.33 1344.35 254.57 1344.35ZM254.57 1343.11C254.022 1343.11 253.6 1342.72 253.6 1342.12C253.6 1341.52 254.022 1341.12 254.57 1341.12C255.118 1341.12 255.54 1341.52 255.54 1342.12C255.54 1342.72 255.118 1343.11 254.57 1343.11Z" fill="white"/>
<path d="M259.992 1339.89C259.435 1339.89 259.013 1340.09 258.785 1340.41V1340.01H257.52V1344.23H258.785V1341.92C258.785 1341.33 259.106 1341.06 259.57 1341.06C259.975 1341.06 260.304 1341.3 260.304 1341.82V1344.23H261.569V1341.64C261.569 1340.5 260.843 1339.89 259.992 1339.89Z" fill="white"/>
<path d="M267.017 1341.22V1340.01H266.148V1338.83L264.883 1339.21V1340.01H264.209V1341.22H264.883V1342.72C264.883 1343.9 265.364 1344.4 267.017 1344.23V1343.08C266.46 1343.11 266.148 1343.08 266.148 1342.72V1341.22H267.017Z" fill="white"/>
<path d="M270.205 1339.89C269.648 1339.89 269.226 1340.09 268.998 1340.41V1338.32H267.733V1344.23H268.998V1341.92C268.998 1341.33 269.319 1341.06 269.783 1341.06C270.188 1341.06 270.517 1341.3 270.517 1341.82V1344.23H271.782V1341.64C271.782 1340.5 271.056 1339.89 270.205 1339.89Z" fill="white"/>
<path d="M273.781 1342.62H276.775C276.808 1342.46 276.825 1342.3 276.825 1342.12C276.825 1340.85 275.914 1339.89 274.683 1339.89C273.35 1339.89 272.44 1340.86 272.44 1342.12C272.44 1343.38 273.334 1344.35 274.776 1344.35C275.577 1344.35 276.201 1344.05 276.614 1343.48L275.602 1342.89C275.434 1343.08 275.138 1343.22 274.793 1343.22C274.329 1343.22 273.941 1343.06 273.781 1342.62ZM273.755 1341.68C273.873 1341.25 274.194 1341.01 274.675 1341.01C275.054 1341.01 275.434 1341.19 275.569 1341.68H273.755Z" fill="white"/>
<path d="M225.14 1359.69H227.6L224.254 1349.85H221.387L218.041 1359.69H220.501L220.993 1358.14H224.648L225.14 1359.69ZM221.668 1356.03L222.82 1352.42L223.973 1356.03H221.668Z" fill="white"/>
<path d="M232.571 1352.46C231.629 1352.46 230.941 1352.79 230.477 1353.32V1352.66H228.368V1362.5H230.477V1359.03C230.941 1359.56 231.629 1359.89 232.571 1359.89C234.413 1359.89 235.931 1358.27 235.931 1356.18C235.931 1354.08 234.413 1352.46 232.571 1352.46ZM232.15 1357.89C231.18 1357.89 230.477 1357.23 230.477 1356.18C230.477 1355.12 231.18 1354.46 232.15 1354.46C233.119 1354.46 233.822 1355.12 233.822 1356.18C233.822 1357.23 233.119 1357.89 232.15 1357.89Z" fill="white"/>
<path d="M241.329 1352.46C240.387 1352.46 239.699 1352.79 239.235 1353.32V1352.66H237.126V1362.5H239.235V1359.03C239.699 1359.56 240.387 1359.89 241.329 1359.89C243.171 1359.89 244.689 1358.27 244.689 1356.18C244.689 1354.08 243.171 1352.46 241.329 1352.46ZM240.907 1357.89C239.938 1357.89 239.235 1357.23 239.235 1356.18C239.235 1355.12 239.938 1354.46 240.907 1354.46C241.877 1354.46 242.58 1355.12 242.58 1356.18C242.58 1357.23 241.877 1357.89 240.907 1357.89Z" fill="white"/>
<path d="M245.884 1359.69H247.993V1349.43H245.884V1359.69Z" fill="white"/>
<path d="M251.419 1357.02H256.409C256.466 1356.75 256.494 1356.47 256.494 1356.18C256.494 1354.05 254.976 1352.46 252.923 1352.46C250.702 1352.46 249.184 1354.08 249.184 1356.18C249.184 1358.27 250.674 1359.89 253.078 1359.89C254.413 1359.89 255.453 1359.39 256.142 1358.44L254.455 1357.47C254.174 1357.78 253.682 1358 253.106 1358C252.333 1358 251.686 1357.75 251.419 1357.02ZM251.377 1355.44C251.574 1354.73 252.108 1354.33 252.909 1354.33C253.542 1354.33 254.174 1354.63 254.399 1355.44H251.377Z" fill="white"/>
<path d="M264.718 1359.89C266.855 1359.89 268.373 1358.76 268.373 1356.86C268.373 1354.78 266.7 1354.26 265.21 1353.81C263.678 1353.35 263.439 1353.04 263.439 1352.59C263.439 1352.2 263.79 1351.85 264.493 1351.85C265.393 1351.85 265.856 1352.28 266.194 1352.98L268.091 1351.87C267.375 1350.43 266.11 1349.65 264.493 1349.65C262.792 1349.65 261.19 1350.75 261.19 1352.65C261.19 1354.53 262.623 1355.23 264.085 1355.64C265.561 1356.05 266.124 1356.29 266.124 1356.89C266.124 1357.27 265.856 1357.69 264.788 1357.69C263.678 1357.69 263.073 1357.15 262.722 1356.33L260.782 1357.45C261.33 1358.9 262.652 1359.89 264.718 1359.89Z" fill="white"/>
<path d="M273.339 1354.69V1352.66H271.891V1350.69L269.783 1351.33V1352.66H268.658V1354.69H269.783V1357.17C269.783 1359.14 270.584 1359.97 273.339 1359.69V1357.78C272.411 1357.83 271.891 1357.78 271.891 1357.17V1354.69H273.339Z" fill="white"/>
<path d="M277.769 1359.89C279.835 1359.89 281.494 1358.27 281.494 1356.18C281.494 1354.08 279.835 1352.46 277.769 1352.46C275.703 1352.46 274.044 1354.08 274.044 1356.18C274.044 1358.27 275.703 1359.89 277.769 1359.89ZM277.769 1357.83C276.855 1357.83 276.153 1357.17 276.153 1356.18C276.153 1355.18 276.855 1354.52 277.769 1354.52C278.683 1354.52 279.386 1355.18 279.386 1356.18C279.386 1357.17 278.683 1357.83 277.769 1357.83Z" fill="white"/>
<path d="M284.795 1353.91V1352.66H282.687V1359.69H284.795V1356.51C284.795 1355.12 286.032 1354.77 286.904 1354.91V1352.52C286.018 1352.52 285.076 1352.97 284.795 1353.91Z" fill="white"/>
<path d="M289.567 1357.02H294.557C294.613 1356.75 294.642 1356.47 294.642 1356.18C294.642 1354.05 293.123 1352.46 291.071 1352.46C288.85 1352.46 287.332 1354.08 287.332 1356.18C287.332 1358.27 288.822 1359.89 291.226 1359.89C292.561 1359.89 293.601 1359.39 294.29 1358.44L292.603 1357.47C292.322 1357.78 291.83 1358 291.254 1358C290.481 1358 289.834 1357.75 289.567 1357.02ZM289.525 1355.44C289.722 1354.73 290.256 1354.33 291.057 1354.33C291.69 1354.33 292.322 1354.63 292.547 1355.44H289.525Z" fill="white"/>
<defs>
<filter id="filter0_d_19_372" x="191.173" y="1163.33" width="77.6322" height="77.6323" filterUnits="userSpaceOnUse" color-interpolation-filters="sRGB">
<feFlood flood-opacity="0" result="BackgroundImageFix"/>
<feColorMatrix in="SourceAlpha" type="matrix" values="0 0 0 0 0 0 0 0 0 0 0 0 0 0 0 0 0 0 127 0" result="hardAlpha"/>
<feOffset dy="2"/>
<feGaussianBlur stdDeviation="5"/>
<feColorMatrix type="matrix" values="0 0 0 0 0 0 0 0 0 0 0 0 0 0 0 0 0 0 0.1 0"/>
<feBlend mode="normal" in2="BackgroundImageFix" result="effect1_dropShadow_19_372"/>
<feBlend mode="normal" in="SourceGraphic" in2="effect1_dropShadow_19_372" result="shape"/>
</filter>
<filter id="filter1_d_19_372" x="0.00286865" y="1160.52" width="77.6322" height="77.6323" filterUnits="userSpaceOnUse" color-interpolation-filters="sRGB">
<feFlood flood-opacity="0" result="BackgroundImageFix"/>
<feColorMatrix in="SourceAlpha" type="matrix" values="0 0 0 0 0 0 0 0 0 0 0 0 0 0 0 0 0 0 127 0" result="hardAlpha"/>
<feOffset dy="2"/>
<feGaussianBlur stdDeviation="5"/>
<feColorMatrix type="matrix" values="0 0 0 0 0 0 0 0 0 0 0 0 0 0 0 0 0 0 0.1 0"/>
<feBlend mode="normal" in2="BackgroundImageFix" result="effect1_dropShadow_19_372"/>
<feBlend mode="normal" in="SourceGraphic" in2="effect1_dropShadow_19_372" result="shape"/>
</filter>
<filter id="filter2_d_19_372" x="92.7767" y="1160.52" width="83.2549" height="83.2549" filterUnits="userSpaceOnUse" color-interpolation-filters="sRGB">
<feFlood flood-opacity="0" result="BackgroundImageFix"/>
<feColorMatrix in="SourceAlpha" type="matrix" values="0 0 0 0 0 0 0 0 0 0 0 0 0 0 0 0 0 0 127 0" result="hardAlpha"/>
<feOffset dy="2"/>
<feGaussianBlur stdDeviation="5"/>
<feColorMatrix type="matrix" values="0 0 0 0 0 0 0 0 0 0 0 0 0 0 0 0 0 0 0.1 0"/>
<feBlend mode="normal" in2="BackgroundImageFix" result="effect1_dropShadow_19_372"/>
<feBlend mode="normal" in="SourceGraphic" in2="effect1_dropShadow_19_372" result="shape"/>
</filter>
<radialGradient id="paint0_angular_19_372" cx="0" cy="0" r="1" gradientUnits="userSpaceOnUse" gradientTransform="translate(134.404 1200.15) rotate(90) scale(0.702832)">
<stop stop-color="#B8D2F1"/>
<stop offset="0.166667" stop-color="#F289AA"/>
<stop offset="0.294697" stop-color="#C68BF0"/>
<stop offset="0.427083" stop-color="#D164DA"/>
<stop offset="0.614583" stop-color="#C963E8"/>
<stop offset="0.71875" stop-color="#BFC2E8"/>
<stop offset="0.802083" stop-color="#FFC999"/>
<stop offset="0.875" stop-color="#D0D8C9"/>
<stop offset="0.928149" stop-color="#BAD0F1"/>
<stop offset="0.997133" stop-color="#CED8CB"/>
<stop offset="1" stop-color="white" stop-opacity="0"/>
</radialGradient>
<clipPath id="clip0_19_372">
<rect width="22.4906" height="22.4906" fill="white" transform="translate(123.862 1188.2)"/>
</clipPath>
<clipPath id="clip1_19_372">
<rect width="28.1133" height="28.1133" fill="white" transform="translate(31.0878 1335.79)"/>
</clipPath>
</defs>
</svg>
